<?xml version="1.0" encoding="UTF-8"?>
<svg id="Layer_1" data-name="Layer 1" xmlns="http://www.w3.org/2000/svg" xmlns:xlink="http://www.w3.org/1999/xlink" viewBox="0 0 368.19 548.82">
  <defs>
    <style>
      .cls-1 {
        fill: #cbe330;
      }

      .cls-2 {
        fill: #0c0b0a;
      }

      .cls-3 {
        fill: #070707;
      }

      .cls-4 {
        fill: #bfda2b;
      }

      .cls-5 {
        fill: #b4c972;
      }

      .cls-6 {
        fill: #323232;
      }

      .cls-7 {
        fill: #b3c977;
      }

      .cls-8 {
        fill: #cee530;
      }

      .cls-9 {
        fill: #c9dc63;
      }

      .cls-10 {
        fill: #c0d278;
      }

      .cls-11 {
        fill: #161b11;
      }

      .cls-12 {
        fill: #10100d;
      }

      .cls-13 {
        fill: #0d0d0b;
      }

      .cls-14 {
        fill: #10120c;
      }

      .cls-15 {
        fill: #141610;
      }

      .cls-16 {
        fill: #ccde6a;
      }

      .cls-17 {
        fill: #11160e;
      }

      .cls-18 {
        fill: #14170f;
      }

      .cls-19 {
        fill: #11120e;
      }

      .cls-20 {
        fill: #b7ca76;
      }

      .cls-21 {
        fill: #bccf78;
      }

      .cls-22 {
        fill: #b5c774;
      }

      .cls-23 {
        fill: #bacd7f;
      }

      .cls-24 {
        fill: #bfd16e;
      }

      .cls-25 {
        fill: #10110d;
      }

      .cls-26 {
        fill: #151a10;
      }

      .cls-27 {
        fill: #0b0b0a;
      }

      .cls-28 {
        fill: #c5d77e;
      }

      .cls-29 {
        fill: #d1e730;
      }

      .cls-30 {
        fill: #12140f;
      }

      .cls-31 {
        fill: url(#linear-gradient);
      }

      .cls-32 {
        fill: #12130e;
      }

      .cls-33 {
        fill: #0f100c;
      }

      .cls-34 {
        fill: #333232;
      }

      .cls-35 {
        fill: #353534;
      }

      .cls-36 {
        fill: #d2e82e;
      }

      .cls-37 {
        fill: #0c0d0a;
      }

      .cls-38 {
        fill: #323231;
      }

      .cls-39 {
        fill: #0e0f0b;
      }

      .cls-40 {
        fill: #bad177;
      }

      .cls-41 {
        fill: #303030;
      }

      .cls-42 {
        fill: #0c0b0b;
      }

      .cls-43 {
        fill: #2f2f2e;
      }

      .cls-44 {
        fill: #bfd06c;
      }

      .cls-45 {
        fill: #bed171;
      }

      .cls-46 {
        fill: #13170e;
      }

      .cls-47 {
        fill: #2f2f2d;
      }

      .cls-48 {
        fill: #c4d670;
      }

      .cls-49 {
        fill: #161a10;
      }

      .cls-50 {
        fill: #c1d572;
      }

      .cls-51 {
        fill: #cde336;
      }

      .cls-52 {
        fill: #39421d;
      }

      .cls-53 {
        fill: #fff;
      }

      .cls-54 {
        fill: #c5d961;
      }

      .cls-55 {
        fill: #0e0e0b;
      }

      .cls-56 {
        fill: #bfd071;
      }

      .cls-57 {
        fill: #b2c56c;
      }

      .cls-58 {
        fill: #0f0e0d;
      }

      .cls-59 {
        fill: #343434;
      }

      .cls-60 {
        fill: #b5c56e;
      }

      .cls-61 {
        fill: #0e0d0c;
      }

      .cls-62 {
        fill: #c2d66c;
      }

      .cls-63 {
        fill: #0d0c0c;
      }

      .cls-64 {
        fill: #13130f;
      }

      .cls-65 {
        fill: #c8d86e;
      }

      .cls-66 {
        fill: #ccdf75;
      }

      .cls-67 {
        fill: #343433;
      }

      .cls-68 {
        fill: #b6c66d;
      }

      .cls-69 {
        fill: #0c0c0b;
      }

      .cls-70 {
        fill: #30302f;
      }

      .cls-71 {
        fill: #d2e730;
      }

      .cls-72 {
        fill: #353533;
      }

      .cls-73 {
        fill: #c6d970;
      }

      .cls-74 {
        fill: #d0e632;
      }

      .cls-75 {
        fill: #c6db68;
      }

      .cls-76 {
        fill: #cfe465;
      }

      .cls-77 {
        fill: #0d0c0b;
      }

      .cls-78 {
        fill: #c0d26e;
      }

      .cls-79 {
        fill: #0f0f0c;
      }

      .cls-80 {
        fill: #c5d959;
      }

      .cls-81 {
        fill: #080807;
      }

      .cls-82 {
        fill: #bfd246;
      }

      .cls-83 {
        fill: #14160f;
      }

      .cls-84 {
        fill: #cce23a;
      }

      .cls-85 {
        fill: #0e0e0c;
      }

      .cls-86 {
        fill: #c7d972;
      }

      .cls-87 {
        fill: #cce332;
      }

      .cls-88 {
        fill: #d0e733;
      }

      .cls-89 {
        fill: #c3d373;
      }

      .cls-90 {
        fill: #c0d177;
      }

      .cls-91 {
        fill: #d3e732;
      }

      .cls-92 {
        fill: #c1d16c;
      }

      .cls-93 {
        fill: #cee434;
      }

      .cls-94 {
        fill: #c7da6c;
      }

      .cls-95 {
        fill: #cee62e;
      }

      .cls-96 {
        fill: #bacc71;
      }

      .cls-97 {
        fill: #c6d870;
      }

      .cls-98 {
        fill: #333332;
      }

      .cls-99 {
        fill: #0e0d0d;
      }

      .cls-100 {
        fill: #bbd175;
      }

      .cls-101 {
        fill: #c7db79;
      }

      .cls-102 {
        fill: #bfd272;
      }

      .cls-103 {
        fill: #bfd66e;
      }

      .cls-104 {
        fill: #bdcf71;
      }

      .cls-105 {
        fill: #313131;
      }

      .cls-106 {
        fill: #cee532;
      }

      .cls-107 {
        fill: #333;
      }

      .cls-108 {
        fill: #cfe534;
      }

      .cls-109 {
        fill: #bfd35d;
      }

      .cls-110 {
        fill: #d8e959;
      }

      .cls-111 {
        fill: #323131;
      }

      .cls-112 {
        fill: #302f2f;
      }

      .cls-113 {
        fill: #11130e;
      }

      .cls-114 {
        fill: #141b0e;
      }

      .cls-115 {
        fill: #c7d96f;
      }

      .cls-116 {
        fill: #313130;
      }

      .cls-117 {
        fill: #13150f;
      }

      .cls-118 {
        fill: #090908;
      }
    </style>
    <linearGradient id="linear-gradient" x1="184.01" y1="313.54" x2="184.01" y2="314.54" gradientTransform="translate(0 549.89) scale(1 -1)" gradientUnits="userSpaceOnUse">
      <stop offset="0" stop-color="#060605"/>
      <stop offset="1" stop-color="#000"/>
    </linearGradient>
  </defs>
  <path class="cls-31" d="M0,.43C122.52.17,245.16.1,367.92.22c.19,182.91.13,365.78-.16,548.6H0V.43Z"/>
  <polygon class="cls-53" points="0 .43 0 0 368.19 0 368.19 548.82 367.76 548.82 367.76 .43 0 .43"/>
  <path class="cls-88" d="M208.17,40.78c.15,3.91.28,7.82.47,11.66,8.37-.1,2.49,19.66-3.52,20.3-3.94,24.63.48,21.81,20.41,31.59,5.29,3.69,11.08,4.79,17.34,6.08,16.73,5.77,22.56,26.63,19.12,42.56-.28,3.67,4.05,12.01,5.05,16.56,1.66,22.85,4.38,24.32,12.57,44.26,3.67,18.39,4.39,37.23,11.37,54.91,9.1,5.11,14.51,12.25,18.16,21.85.95,1.95,3.12,3.15,1.93,5.66-1.34,2.01-5.27,1.32-7.2.49-.56-.36-2.4-2.62-2.88-2.12.76,5.14,3.3,10.43,2.6,15.62-.33.72-.62.58-.87-.43-2.26-5.95-4.62-13.61-5.22-19.97-.36-3.74,1.76-3.01,3.14-.8.78,4.24,11.68,10.63,6.44,2.82-3.72-9.56-9.46-16.42-18.02-21.72-1.36-2.83-2.75-6.47-2.39-9.36-8.41-16.43-2.93-40.09-13.35-55.63l-.1-1.64c-1.56.9-3.76-7.68-4.34-9.11-1.27-1.76-1.56-3.21-.87-4.34-1.18-1.27-1.74-2.95-1.71-5.05.14-9.84-1.75-20.32-6.49-28.54-.01-.74.15-9.45,1.69-9.36.36-1.81.42-3.92,0-5.64l-.64-.59c-2.66-34.12-32.22-27.34-55.35-44.29l.05-.67c-1.61.92-4.17-3.36-2.6-4.34-.11-3.54-.26-7.01-.43-10.41-.29,1.7-.87,2.42-1.73,2.17.38,1.74-2.6,4.76-4.34,4.34-.5,1.96-4.2,4.86-6.07,3.9-.3,1.27-1.5,1.66-2.17.43-.58.36-1.22.25-.87-.43-.87,0-.12-1.02,0-1.39,3.72-.91,7.25-2.72,9.38-6.21l1.04.22c-.44-1.01.83-2.07,1.73-2.17l1.99-2.83c-.17-1.27.15-2.18.94-2.73.69-2.62.02-7.1,3.6-6.72,2.18-2.74,3.59-6,4.21-9.79,1.75-.65,1.31-1.43.97-4.4-.7.45-1.56,0-2.6-1.3-.17.51-2.55.81-2.57.68,1.31-6.32.81-12.26-.46-18.47l-1.21-.76c-7.25-17.28-33.91-16.86-40.94.4l-1.22.79c-1.48,6.08-1.09,11.97-.44,18.15-.44.82-1.88-.1-2.16-.79l-.63.7c-1.45-.96-1.56,2.23-1.49,3.3l-.91.77c.48,1.87.33,3.18-.43,3.9-1.46-3.41-2.23-11.47,3.47-10.41-6.37-37.08,43.21-43.59,48.57-11.71h0Z"/>
  <path class="cls-29" d="M160.46,69.42c1.14.13,2.44.23,3.89.31,2,4.57.71,12.48,6.61,13.82,2.36,4.36,5.9,5.66,10.27,6.56l.05,1c-1.6.49,1.87-.02,4.34.43,3.07.82-3.7,1.17-4.27,1.47l-.5-.6c-.35,1.11-.79,1.11-1.3,0-.28.39-.86.24-1.73-.43-2.09,1-6.16-2.69-6.94-4.77-1.67-.47-3.31-2.45-3.9-3.9-.82.27-1.4-.31-1.73-1.74-.49,2.21-.29,6.55,0,9.54,1.11.81.68,1.82-1.3,3.04.27,1.19-.53,2.3-1.73,1.74l-.22.87c-7.97,4.31-16.03,8.52-24.18,12.63l-.76-.05c-22.93,3.17-33.9,22.09-29.05,44.26-.44,1.37-.59,2.74-.45,4.1-4.67,8.15-6.19,17.92-6.02,27.45.02,2.08-.57,3.85-1.77,5.32.83.24.85.63,0,.87-.06,3.16-2.13,6.91-3.9,9.54.42.89-.14,2.66-1.3,2.6l.25.77c-9.91,15.66-5.71,38.75-13.26,55.2.25,1.33-.02,2.81-.84,4.43.09,8.91-12.45,11.14-16.41,20.67-.6,1.02-5.69,10.31-5.22,10.66,4.08,2.12,7.32-5.34,9.51-7.59l1.61-.2c.96.52-1.58,13.35-3.4,14.98-.24.87-.56,1.11-1.29.55.11-1.99,1.27-6.66,1.29-8.36-2.5,1.91-5.64,4.97-8.9,2.62-3.12-2.25-.28-4.4.75-6.65,3.63-9.64,9.89-16.83,18.47-22.3,2.88-9.56,5.93-19.11,7.42-29.02,1.18-7.85,1.16-16,3.2-23.7,2.94-11.09,10.3-20.03,11.59-31.57.72-7.26.77-14.12,3.46-21.05,1.13-3.28,3.27-6.43,3.05-9.98-4.49-18.67,5.92-43.63,27.44-44.12,3.62-.71,9.18-4.6,12.72-6.36,18.43-7.38,20.3-10.04,16.65-29.7-5.13-1.07-7.3-9.07-6.08-13.74l.97.23,2.22,7.71c.69.82.92,1.64.71,2.47h-.02Z"/>
  <path class="cls-36" d="M227.25,200.87c1.18-2.08,1.5.52.87,2.6-1.82,9.97,2.16,19.48.86,29.28,3.15,18.99,6.93,37.42,10.37,56.45,3.14,26.98,2.19,54.63-6.87,80.24-1.17,6.15.95,15.34-.46,21.45-.23-3.98-1.35.6,0,5.64,10.87,28.38,1.21,57.32-3.9,85.9-1.92,1.5-1.23-2.56-.87-3.9-2.34.7,6.31-32.13,5.95-32.79,3.77-14.82,1.41-29.43-1.62-44-1.41.02-2.12-3.69-.87-4.34-1.31-8.97.18-18.51-.68-27.64,3.83-9.65,6.2-19.8,7.38-30.11.97-1.6,1.43-4.34.61-6.25,1.51-11.79.78-23.64,1.36-35.36,0,.28-.12.45-.43.43-2.65-9.93-3.29-20.54-5.64-30.37-1.13-.32-.98-.75,0-1.3-2.25-8.53-2.27-17.78-5.98-25.95l.34-.95c-2.29-.34-1.2-5.05-.43-6.51.91-5.39-.98-10.97-1.33-16.47-1-.88-.76-2.02.03-3.05-.25-.88-.44-1.76,0-2.6-.14-2.16-.92-9.79,1.3-10.41h0Z"/>
  <path class="cls-36" d="M196.89,370.94l.68.88c.97,8.93,2.95,17.75,4.93,26.42l-.41.89c2.67,12.68-4.84,25.98-1.24,38.98l-.49.5c.31,1.42.34,3.8-.87,1.74-4.41-13.8,1.88-26.6,1.3-40.35-4.97-15-6.15-30.99-7.38-46.63-3.35-18.62-7.65-35.95-9.23-54.78l-.4-.08c-1.81,23.42-9.47,45.43-10.75,68.95l-.22-.29c-.13,10.39-3.07,23.6-5.85,33.7-.14-1.07-.28-.2-.43,2.6-.79,2.22-1.59-1.1-.87-2.6-.49.1-.49-.33,0-1.3l-.75-.76c3.16-11.14,5.18-22.91,6.64-34.45l.61-.36c.12-1.67.27-3.7.43-6.07-1.36-6.48,1.33-13.49,2.26-20.2,4.48-11.92,5.19-25.43,5.8-37.82.1-6.15,7.48-5.61,6.66.7-.63,23.8,10.45,46.37,9.56,70.33h.02Z"/>
  <path class="cls-71" d="M130.97,178.75c-1.61-2.3,2.54-3.3,1.73,0,1.73,5.49,4.73,9.96,6.07,15.62,1.4-.18,1.79,1.81.87,2.6,1.63,1.87,2.78,5.56,1.73,7.81.66,1.22.66,1.94,0,2.17.45,3.54.47,7.31,0,10.85l.49.53c-1.01,4.52-1.45,9.08-1.32,13.66l-.48.56c.24,1.06.3,6.49-1.11,5.46-1.31-10.82,1.56-19.78,1.07-30.81-1.38-9.01-4.22-17.32-8.64-24.98-1.67,10.7-8.39,20.04-7.41,30.98-2.09,24.64-22.62,41.55-26.85,64.9,3.18,2.92-9.01,44.65-8.67,34.71l-.44-1.77c3.61-11.17,6.61-20.74,6.93-32.55-1.76-7.46,6.14-13.64,7.16-20.77,7.06-11.82,15.55-24.7,18.44-37.76.09-5.71,4.1-11.88,1.95-17.28,3.14-7.75,4.76-16.36,8.46-23.93h.02Z"/>
  <path class="cls-74" d="M132.71,436.89c3.77,16.34,7.84,33.09,9.54,49.89,1.36.34,1.28,3.02,0,3.47.33,2.28.33,4.59,0,6.94l.77.64c-1.16,3.24-.63,5.76.06,9.05-2.06,6.28-6.42,11.45-11.61,15.47-2.68,2.09-3.96,6.49.68,6.72,2.98.16,5.86.67,8.65,1.52,2.11-.76,5.33-1.41,5.77,1.3.71.22,3.7.52,3.04,0-1.51-2.11,6.37-1.47,6.87-9.61,5.18-2.25,5-5.24,3.65-10.1l.75-.69c.06-.99.35-1.57.87-1.74v-.43c1.79,5.48,3.15,11.83-3.26,14.75-.1,4.53-6.46,9.5-10.79,9.53-5.53-2.39-17.39.32-20.75-4.87-2.48-5.8,5.63-9.75,8.57-13.33.71-.86,4.67-7.37,4.89-8.13.54-12.02.49-24.61-2.64-36.66-.37-2.79-9.55-38.39-5.08-33.75l.02.03Z"/>
  <path class="cls-95" d="M130.97,276.36c1.34-2.2,1.3.91.87,2.6l.55.59c-1.22,6.63-2.43,13.3-3.02,20.07l-.56.6c-.66-1.62-.05,4.87-.43,5.64,1.14,7.73-.24,15.92.87,23.43l.47.42c-.38,13.53,4.87,27.09,7.34,39.28l.58.13-.1,23.87-.48.3c1.51-.88-.09,4.5,0,4.99,1.25,1.18.17,3.26-.87,3.9-1.15,5.96-2.24,11.97-3.28,18.04l-.62.18c-.18-.17-.18-.46,0-.87-.8-.04-.71-1.13-.43-1.74-.76-5.81,2.63-15.07,3.9-20.82.18-7.89.26-15.97.22-24.25.43-3.08.36-3.09-.22-.04-4.39-15.98-9.1-33.97-8.46-51.06l-.21.3c-1.58-15.73,1.49-29.92,3.9-45.55h-.02Z"/>
  <path class="cls-106" d="M236.79,177.88c3.38,8.21,5.1,17.11,8.6,25.21l-.79.82c-.19,5.87,2.5,10.15,2.6,15.62,1.46.51,1.32,3.08.87,4.34,4.48,18.11,22.43,33.2,23.23,51.64.54,2.98.32,3.7-.67,2.16-3.65-22.24-22.57-37.01-25.9-60.2-.24-12.71-5.42-23.24-8.36-35.24-2.98,4.06-3.83,10.06-6.4,14.64l-1.84,6.62v-2.61h-.87c-.9-.89.1-2.95.87-3.9-.71-.97-.6-2.7.87-2.6.52-.89.52-1.61,0-2.15,2.81-4.38,4.88-9.21,6.22-14.5.96-.17,1.91-1.8,1.58.17v-.02Z"/>
  <path class="cls-91" d="M165.67,400.88c-.02.87,0,1.74,0,2.61h.87c9.94,35.28-6.97,52.9-6.03,87.81.46,4.61,3.83,8.8,1.26,13.7-.56-.55-.63-.5-.21.15-.47,2.1,1.12,4.84-.65,6.36-1.34-.24-1.64-2.42-.43-3.04-.35-.78-.35-1.51,0-2.17-1.26-.56-1.29-2.07,0-2.6.55-.98.87-1.95.43-3.04-1.7-1.52-4.94-15.54-2.17-16.49-.73-.25-.51-2.39.43-2.17.82-4.14-.85-7.52,1.3-11.71-.67-.09-.65-1.1,0-1.3,1.47-19.5,11.07-37.47,5.57-57.34l.5-.79c-.47-1.62-.24-3.14-.87-4.77-1.39-.71-2.33-5.05,0-5.21h0Z"/>
  <path class="cls-93" d="M272.35,275.93c-.26.52-.41,1.1-.43,1.74l.92.99c-.5,9.97,4,26.95,8.8,35.47,1.59,1.28,1.79-2.24,3.67-.67,2.08,6.3,3.92,7.92,5.53,4.85,2.42-2.01,3.45,5.7,6.41.78l.69.23c-.45-4.79,2.59-1.76,4.23-4.6l.97.26c.22-.62.55-3.12,0-3.47-1.48.58-1.86-1.34-.43-1.74.27.12.59.39.87.43.14-.33.28-.48.43-.43,1.4,3.85.65,9.37-4.77,8.68.08,5.74-4.54,5.42-8.24,3.04-4.28,1.27-5.77-1.68-7.36-5.02-3.87,1.1-5.33-2.25-6.42-5.28-2.92-9.3-8.64-24.01-6.61-33.52l.82-.04c-.83-1.49-.12-2.77.05-4.29,1.33-.22,2.15,2,.87,2.6h0Z"/>
  <path class="cls-108" d="M208.17,476.8c.25,2.58.64,6.1.87,8.68.85.55.85,1.19,0,1.74-.19,2.24-.45,4.74-.87,6.94l.68.89c-3.21,6.12,2.65,15-2.85,19.93-.46,1.1-.23,2.34,0,3.47,1.07-.44,1.23.03.43.87.94.84,1.81,1.71,2.6,2.6,3.36-1.75,1.41,6.12,9.18,8.93l-.07,1.05c1.1.44,2.65.28,3.9,0-.37-2.76,2.7-2.27,4.55-1.27,2.44-1.21,4.39-1.23,5.86-.03,1.43-.05,2.44.24,3.04.87l-6.94,1.3-3.9-.43c-5.91,3.5-14.48-1.84-15.4-8.24-9.15-3.95-1-15.12-4.07-22.39.15-6.3,3.6-12.32,2.56-18.84-1.03-3.26-.82-7.43-.97-10.87,2.25-.84,2.85,3.74,1.41,4.8h0Z"/>
  <path class="cls-108" d="M228.12,482.44c-1.27,10.97-3.3,23.64,4.15,32.94,2.45,3.01,7.79,5.58,8.67,9.55,1.55,5.86-3.96,6.88-8.48,6.53.17-.66-.53-1.67.26-1.91,15.96-1.25-4.83-11.35-7.9-21.94,1.4-6.76-1.67-13.02-.22-19.91l.93-.49.8-6.96c-.62-.84-.17-1.83.94-1.71-.03,1.27-.44,3.42.87,3.9h-.02Z"/>
  <path class="cls-84" d="M65.92,299.79v2.61h.87l.72.75c-.21,2.3-4.81,14.28.65,12.61l.8.52.51-.2.36,2.81c.57-.62.82-.36.43.43.84,2.74,4.42,1.91,5.2-.43-.32-1.15.13-1.28,1.25-.95,2.33,4.99,4.91-1.23,5.54-4.08.69-1.03,1.84-.88,3.45.45.93-.88,1.85-1.38,2.77-1.5v.87h.87c-.73,2.62-2.96,3.4-5.61,3.07-.34,3.66-4.22,6.76-7.56,4.81-2.7,3.32-8.15,1.35-7.64-3.1-9.78.27-3.58-13.31-2.6-18.65v-.02Z"/>
  <path class="cls-1" d="M138.78,232.54c.98.53,0,4.96.65,5.21l.65-5.21c1.54-.16,1.1,4.67.43,5.64.4.04.37.19,0,.43l-.03,2.04c-3.6,7.9-3.83,16.77-5.6,25.29,1.12.43.47,2.37-.43,2.6-.29,1.9-.48,10.11-2.6,10.41.03-.86-.02-1.74,0-2.61h-.87c1.56-8.81,2.59-18.41,4.46-26.99,1.26-5.78,4.18-10.74,3.34-16.83v.02Z"/>
  <path class="cls-87" d="M207.3,468.56c1.59.66,1.5,2.95.09,3.76-.15,1.23-.47,2.36-.52,3.61-1.39-8.82-4.66-27.31-7.37-35.58h.87v-1.74c4.98,8.82,5.58,19.86,6.94,29.94h0Z"/>
  <path class="cls-51" d="M131.84,417.8c.97,1.1-.06,5.62,0,6.94,1.08,3.77,1.15,8.24.87,12.15h-.87c.03,1.15-.04,2.32,0,3.47l-.35-.28c-.92-7.42-1.26-15.35-.08-22.71.21-.14.35,0,.43.43h0Z"/>
  <path class="cls-14" d="M185.62,308.9c-1.03-1.35-.38-3.61-.87-5.38-3.07-1.83-1.12,5.97-2.59,7.11.27-4.32.25-8.72.88-13l1.46.03.64.66.49,10.58h-.01Z"/>
  <path class="cls-76" d="M135.74,372.68l.43-2.39v27.33c-.57.69-.42-.32-.43-.65-.14-8.14-.14-16.12,0-24.3h0Z"/>
  <path class="cls-110" d="M232.02,390.9c.03,1.77-.21,3.97,0,5.64-.62,1.17-.43-.75-.43-1.08,0-8.39,0-16.78,0-25.16.62-.7.42.49.43.86.2,6.57-.13,13.18,0,19.74Z"/>
  <path class="cls-82" d="M207.3,490.68c.18-2.47,0-5.29,0-7.81,1.57-1.1.99,7.03,0,7.81Z"/>
  <path class="cls-60" d="M130.97,434.28c-1.2-3.21-.1-7.52-.44-11.06,0-.72-.3-1.97.44-2.39-.14,4.34-.15,9.12,0,13.45Z"/>
  <path class="cls-66" d="M208.6,51.63c-1.34-3.09.04-7.44-.43-10.85,1.34,3.07-.04,7.46.43,10.85Z"/>
  <path class="cls-5" d="M159.59,51.19c-1.19-3.1-.17-7.06,0-10.41-.07,3.46.09,6.95,0,10.41Z"/>
  <path class="cls-10" d="M173.91,356.19c-.45,2.25.81,5.63-.43,7.38.09-2.52-.06-5.07,0-7.6l.43.22Z"/>
  <path class="cls-7" d="M97.14,286.34c.13-2.73-.09-5.51,0-8.24.74.19.76,8.02,0,8.24Z"/>
  <path class="cls-104" d="M200.79,400.01c.96-2.07.22,6.06.43,6.73l-.43-.22c.2-2.08-.14-4.4,0-6.51Z"/>
  <path class="cls-57" d="M127.5,327.99c-.76.46-.79-8.02,0-7.37.06,2.45-.07,4.93,0,7.37Z"/>
  <path class="cls-80" d="M166.97,400.88c.06,1.58-.02,3.19,0,4.77.24.28.27.57,0,.87-1.12-1.78-.13-4.81-.43-6.94h.43c.02.43,0,.87,0,1.3h0Z"/>
  <path class="cls-78" d="M227.25,505c-.11-2.01.08-4.06,0-6.07.7,1.24.79,4.82,0,6.07Z"/>
  <path class="cls-68" d="M140.51,505c-.8-1.26-.7-4.83,0-6.07-.06,2.02.08,4.06,0,6.07Z"/>
  <path class="cls-16" d="M161.76,505c-.05,1.58.08,3.2,0,4.77l-.36-.28-.07-4.93.43.43h0Z"/>
  <path class="cls-115" d="M309.65,297.19c-2.16,1.04-2.25.82-4.34,0h4.34Z"/>
  <path class="cls-97" d="M181.71,312.37c-.2,1.35.5,3.34-.43,4.34.06-1.58-.05-3.19,0-4.77l.43.43Z"/>
  <path class="cls-92" d="M173.04,367.47c-.1,1.1.41,2.76-.43,3.47.05-1.44-.04-2.9,0-4.34h.43v.87Z"/>
  <path class="cls-23" d="M143.11,532.33c-.89.87-2.82.35-4.06.36l-.28-.36c1.41.08,2.96-.13,4.34,0Z"/>
  <path class="cls-45" d="M99.75,180.05c-.03,1.44.02,2.9,0,4.34l-.43-.43c.14-1.23-.45-3.05.43-3.9h0Z"/>
  <path class="cls-28" d="M228.55,532.77c-1.21-.18-3.05.48-3.9-.43,1.08-.11,3.18-.26,3.9.43Z"/>
  <path class="cls-102" d="M172.17,374.85c-.1,1.1.41,2.76-.43,3.47.05-1.29-.04-2.61,0-3.9l.43.43Z"/>
  <path class="cls-65" d="M239.83,334.06c-.1,1.1.41,2.76-.43,3.47.04-1.29-.03-2.61,0-3.9l.43.43Z"/>
  <path class="cls-89" d="M164.36,455.54c-.13.94.42,2.47-.43,3.04.06-1.15-.04-2.32,0-3.47l.43.43Z"/>
  <path class="cls-86" d="M291,321.48l-.28.36c-1.36.37-2.12.03-3.19-.36,1.11.1,2.4-.15,3.47,0Z"/>
  <path class="cls-109" d="M304.01,309.77c.05.31-.15.48-.43.43v-3.04c.16.9.31,1.51.43,2.6h0Z"/>
  <path class="cls-9" d="M131.84,417.8c-.72-.44-.7-2.59,0-3.04-.03,1.01.02,2.03,0,3.04Z"/>
  <path class="cls-87" d="M207.73,482.87h-.43v-2.17c.09.56.31,1.3.43,2.17Z"/>
  <path class="cls-36" d="M167.4,407.82l-.36-.28c-.16-.61-.04-1.25-.07-1.89l.36.29c.21.61,0,1.31.07,1.88Z"/>
  <path class="cls-81" d="M196.46,87.64c.41-.26.76-.25,1.05.1-3.15,10.71-6.39,21.69-10.03,32.16l2.72-3.16,1.05-.03c3.51-1.36,2.08,3.47.31,5.08-.71.41-1.1,1.03-1.18,1.86.96,1.13.95,2.71-.02,4.73-4.3,7.11-6.96,37.4,3.55,39.6,12.58,4.32,26.96,6.62,35.34-6.2,1.57-2.41,7.16-13.35,5.41-16.34-6.58-12.17-27.7-16.28-38.63-22.22-2.85-1.98,6.45-.62,7.56.46,11.2,3.65,22.97,7.64,30.71,16.91-3.97-9.25-8.77-18.13-18.11-22.45l-.21-1c-2.68-1.43.4-2.07,2.34-1.87.91-1.64,2.45-2.9,4.6-3.77.98-2.09,4.77-2.53,6.94-1.74.22-1.33,3.29.57,3.9.87.95.16,1.24.45.87.87,19.75,4.27,26.99,27.84,19.55,45,2.05,4.03,3.3,4.31,3.74.84l.99-.29c.93-2.29,2.31.05.87.87.44,2.37.14,4.87-.9,7.47,3.32,8.66,5.13,18.09,4.16,27.36l.65-.12c3.65-7.54,4.25-3.12,5.2,1.74-.12.38-.27.37-.43,0-.7.27-1.07.02-1.29-.64-13.77,25.07,6.18,45.6,17.63,66.55.17.34.38.13.58-.39-.41-2.96.62-.76,1.3.87,1.99,6.57,2,9.33,8.45,12.58,7.71,6.21,10.71,13.33,14.48,21.83-2.09,3.07-6.15-.45-7.76-2.52-1.26-1.63-1.87-3.97-3.9-4.99,1.28,9.16,5.11,18.36,5.2,27.33-.26-.04-2.19,3.65-4.34,1.3-.58.56-.87,1.57-.87,3.04-1.85,3.79-4.19,2.41-6.29-.87-.45,1.24-.58,2.21-2.16,2.2-3.94-.01-3.84-6.4-5.21-6.98-3.92,5.99-6.51-6.33-7.37-9.11-2.82-9.12-6.37-19.22-4.55-28.64.13-1.26-4.83-11.72-3.04-10.85,1.39,1.57,1.4,1.01.03-1.67l.4-.5c-.43-1.5.08-.96.87,0,.45.14.73.05.76-.36-8.41-13.73-15.59-28.03-21.54-42.89l-.1,4.06c-2.3,2.6-1.94-2.64-2.54-4.19-.36-1.13-.07-1.71.87-1.74-2.75-5.85,9.43-11.39,2.78-15.93l.26-.99c-1.32.65-1.52-.02-1.73-1.3-.93.54-7.26-5.77-6.94-7.38-1.46.5-3.48-5.33-1.3-4.34l1.14.41c4.18,5.67,9.64,10.76,15.03,15.18,6-10.4,2.54-30.63-3.31-41.37-2.42-4.69-8.96-12.07-14.82-10.98-2.92.54-2.04,21.99-.82,25.35l-.69.99c.32,1.6,0,1.92-.87.43-.29-.11-.58-.35-.87-.43-.95,1.4-1.24.82-.87-1.74-.42-.07-.68-.3-.78-.7.38-1.94.95-20.55-1.29-11.67l-.97.22c-.04,2.87-.62,3.73-1.73,2.6.97,2.42-9.29,7.49-11.53,8.2.08.41,6.95,2.72,8.02,1.29l.9.48c1.12-.49,1.32.09.43.87l-.15,1.16c-1.88,1.3-3.39,3.02-4.59,4.95,1.46.47,4.75,3.75,1.7,3l-.91.64c-2.3-.77-4.59-.66-6.89.03l-.88-.67c-1.55.49-2.47-.02-.87-.87l.38-1c1.33.11,7.16-3.89,6.5-4.91-1.28-1.96-14.25-6.25-11.7.98l-.82.58c.29,1.22-1.42,4.53-2.6,3.04l-.97-.74c1.35-6.57-16.49-13.4-19.61-11.01-1.64,1.25-1.1,11.69,2.89,11.53,4.97,1.43,9.6,2.9,13.9,6.03l.32,1.14c2.27.88,1.56,2.93-.43,2.17l-.95.41c-4.17-1.8-16.05-9.8-16.46-1.1-.32,2.53-.71,10.39,1.67,11.6.77.39,12.09,1.59,14.27,1.68,6.6.89,3.32-4.69,4.94-8.25-.53-.61-.33-1.11.6-1.48-2.62-3.29,4.55-8.92,3-2.83l.74,2.58c.64-.04,1.08.38,1.33,1.25,2.38,2.16,11.48-5.24,12.4-8.08l1.01-.11c.59-.48.73-.19.43.87.66.62.66,1.49,0,2.6l1.31.43c4.45-5.32-.76,8.88-.43,4.34-1.7-2.83-4.03-2.57-7,.79-7.42,2.27-9.75,6.22-7.31,13.53-.22,1.61-2.54,4.22-4.2,1.95-.18-2.07-1.16-3.31-2.83-4.55-1.92.37-4.05.39-5.98,0l-.74.86c-4.14-.81-8.11-.92-11.92-.34l-.79-.52c-1.41,1.2-3.81-1.56-3.39-3.33.47-1.31.38-2.57-.28-3.77l-.23-9.38-.6-.1c-.68-5.17-4.85-3.82-8.52-2.42-6.47,2.46-14.05,6.17-11.85,14.42l-.71.68c.83.71.48,1.63-1.04,2.76-.22,2.4-2.5,3.34-3.3,1.15-.37-.14-.37-.28,0-.43.36-.78.36-1.65,0-2.6l-.98-.43c-.45-6.15-7.76-6.41-11.79-10.47-1.05.76-2,1.07-2.84.92-.33,4.77-1.7.19-2.17-1.3-1.1-1.83-.16-4.13,1.3-1.74l.51-.27c2.58,1.29-1.04-4.86-1.81-3.2-1.91,3.24-4.44-18.15-3.7-21.02-.39-2.5-.07-5.41-1.44-7.59-.75-.43.02,16.15.49,17.24-.33.57-.69,2.89-1.42.96-.43-.59-.27-1.92-1.32-1.1-.69,1.66-2.15,4.98-1.71,1.53l-.59-1.34c.7-4.86,5.59-31.66-4.63-25.94-19.41,4.44-21.71,65.09-9.66,47.85l1,.25c1.13-.85,1.69-.26.87.87.2,1.39-.53,2.64-2.18,3.74,2.15,4.15,6,8.35,5.65,13.18,1.71-.09-1.32,9.76-.87,5.21-.9-.85-1.32-2.09-1.26-3.72-6.52,15.8-14.16,30.97-22.94,45.51-.09.16,1.62-3.09,2.51-2.31.61-.57.83-.33.43.43l.58.69-1.79,3.51.78.13c1.9-1.34-2.54,7.69-2.16,8.04,2.02,13.33-3.8,24.87-6.95,37.51-1.67,2.2-2.87,3.56-4.99.87-.97,0-1.25,7.26-5.17,6.93-1.39-.12-1.88-.82-1.99-2.16-.05-.07-.69.31-.86.43-1.04,2.92-4.55,2.73-5.64,0-.03-1.33-.32-2.2-.87-2.6-10.2,4.38,1.54-23.96.86-28.63-3.07,2.47-5.49,10.11-10.55,8.6-2.65-.79.11-3.59.66-4.83,3.03-6.78,5.94-12.46,11.84-17.22,1.76-1.41,3.75-2.46,5.4-3.71,1.41.42,5.28-15.82,5.22-11.04l.7.52c13.16-23.01,30.9-40.31,17.08-68.2-.72.93-.37-.87-.43-1.3.97-2.19,2.13-2.48,2.49.14.91.08,1.52.46,1.85,1.16l.7.1c-1.3-9.08,1.34-17.89,4.04-26.2l-1.1-5.67.69-.77c-.06-.75-.16-1.59-1.03-1.14-.22-.14.2-4.97,1.03-4.5,2.67,1.8.94,10.76,5.41,2.44-8.36-16.94.28-40.32,19.31-44.52.6-1.09,3.01-1.83,4.34-1.74.34-.76.68-.83.87,0l1.72-.53c4.52,1.42,9.09,2.65,13.7,3.69-.02-2.96.51-8.02,3.66-8.8.74-.45.89-.17.43.87l.55.76c-.5.82-2.31,4.56-1.87,5.28.22.36,7.04-3.43,7.27-4.19.34-1.15.71-7.71.41-8.84-.33.77-.86,1.07-1.58.91-.75.99-1.05.76-.87-.43-.38-.14-.38-.29,0-.43-.64-1.61,3.53-6.85,4.85-4.51-1.46.85-.85,4.54.36,5.74.25,5.13-.34,10.13-1.88,14.98l6.56.94c-.75-6.75-5.19-13.47-4.68-20.19-.53-1.58.02-1.91.87-.43l1.07.62c-.19,2.62,9.5,25.84,11.38,24.69-1.61-4.9-3.13-9.81-4.58-14.71.66-.33.97-1.43,1.67-.19.66-2.63,1.09-5.28,1.3-7.97l.86-.71c.28-1.34.28-2.64,0-3.9,1.98-.02,3.95.44,5.97.22l.34.52c-1.59,2.08-.74,4.39.16,6.48l-.83.59c1.35,5.16-.12,10.69.81,15.99,1.46-3.65,2-7.53,1.47-11.46l.75-1.06c-1.41-.62-2.22-4.59-1.1-5.47l-.2-1.04c-1.07-.76-1.07-1.41,0-2.17-.8-1.62-.8-2.49,0-2.6.02-1.16,1.64.23,1.97.69-.72.81.85,10.09,1.27,9.83-.16-3.63-.39-7.27-.69-10.92,2.36-1.03,4.97-2.71,6.98-4.38l.04.04Z"/>
  <path class="cls-3" d="M205.56,36.44c.34.8.57,1.72-.43,1.3l-.7.31c.11.89-.99,3.95-2.33,4.03-.91,1.44-1.67.69-1.3-.87l-.67-.86c3.81-11.25-15.76-17-15.15,3.91-2.19,3.38-2.68-2.05-2.62-3.89.21-10.58-10.8-14.12-15.11-4.47,1.14,4.57,1.11,9.75,3.18,13.55,1.18-.73.17.95.09,1.38-3.64,1.1-4.32,5.94-2.98,9.07l-.58.83c.88.68.36,1.55-.63,1.21-.47.99-1.45,1.8-2.94,2.43l-1.85,5-1.08.04c-3.62-3.63-7.23-22.87,2.6-12.39,2.61-6.06,3.34-14.42-.43-19.28,1.5-18.25,36.93-22.33,42.93-1.3Z"/>
  <path class="cls-27" d="M202.96,91.54c-.14,2.6,4.02,4.22,2.6,6.07,4.88,3.62,8.44,9.1,8.65,15.15,2.59-.36,5.12-.98,7.6-1.87l1.09.6-.7,1.76c-3.4-.74-1.6,2.77-4.33,2.99-.5.04-3.11-.75-1.91.89l-.67.78c-3.06.17-19.84,1.93-20.34,2.84,2.15.48,1.68,2.35.14,3.08-1.57-.62-3.14-.69-4.72-.19-1.76-1.72,5.04-5.72.87-6.94l-.44-.98c4.6-10.1,10.5-21.06,9.98-32.42.43-.51,1.13-2.18,1.73-2.17.11,3.46.26,6.93.43,10.41h.02Z"/>
  <path class="cls-3" d="M201.66,49.89l.95.34,1.82,6.21c.18-.51.62-.77,1.14-.91l.45-1.04c.9.39,1.54.56,2.58-.26.22-.09,2.06-.04,2.13.05.09.24-.04,1.5.48,1.25,1.43,3.22-3.97,20.22-7.81,13.88.38-1.61.38-3.2,0-4.77l-.52.27c-1.32-.88-1.79-1.75-1.4-2.61-1.38.16-.98-1.21-1.49-2.01,1.62-2.54,1.11-6.51-1.07-8.58l.14-.95c-.13-.24.02-.53.43-.87-.31-.12-.3-.26,0-.43-.57-2.85,1.57-1.25,2.17.43h0Z"/>
  <path class="cls-25" d="M235.49,110.63c20.92,1.93,29.39,24.42,24.76,42.77-.28,2.85,2.46,7.44,3.44,10.36,3.01,8.91,2.49,17.31,4.33,26.26l-1.73-.87c-.1.63-.66,2.61-.92,2.99-.05.07-1.24-.34-1.68.48l-.36-1.73c4.31-11.78-.97-23.02-3.55-34.28l-.86.44c1.86-19.73-.81-41.75-24.29-45.55-.3-.27-.57-.59-.87-.87.37-.27.95-.27,1.73,0Z"/>
  <path class="cls-118" d="M273.22,203.48c1.48,15.79,4.97,32.05,9.54,47.29,1.19-.42,1.85,5.59,0,3.47-.32-.2-.63-.42-.9-.67-9.21-17.16-8.7-40.44-13.41-59.2h.43c.52,1.85,3.28,6.92,4.34,9.11Z"/>
  <path class="cls-30" d="M286.66,260.74c-.56-.39-.82-1.06-.87-1.73h-.43v.87c-1.36-.75-3.36-4.13-2.6-5.64h.87c-5-11.74-3.35-38.78-10.77-46.7-.12-1.34-.33-2.85.36-4.06,10.36,17.08,6.14,38.91,13.44,57.27h0Z"/>
  <path class="cls-46" d="M235.49,110.63c-2.11.29-3.53-.72-5.64-.87-3.38-.35-27.12-10.89-24.29-13.88,9.09,5.48,19.99,10.7,29.92,14.75h.01Z"/>
  <path class="cls-17" d="M162.63,37.74l.57.23c-1.15,5.38-.67,11.14-.17,16.77l-.84,1.22c-1.5.36-1.61-.4-2.61-1.14v-.59c.54.16,1,.65,1.74.43-.61-6.25-1.37-11.75.87-17.79,0,.39-.09.96.43.87h0Z"/>
  <path class="cls-26" d="M205.56,36.44c2.62,5.74,1.63,12.12.87,18.22l2.17-.43c-.2,1.2-2.22.65-3.04,1.3l-.75-.85c1.34-5.83.62-11.07-.26-16.63l.58-.31c0-.08.72-.77.43-1.3Z"/>
  <path class="cls-22" d="M202.96,91.54c-1.35-2.91.04-7.18-.43-10.41,1.27,2.71,0,7.17.43,10.41Z"/>
  <path class="cls-54" d="M181.28,91.11c1.8-.11,3.93.23,5.64,0l.43.43c-.45.65-1.29.65-1.73,0-1.73-.04-3.47.03-5.2,0v-.43c.29-.02.58.02.87,0h0Z"/>
  <path class="cls-75" d="M261.51,147.07c-.12-1.83.17-3.84,0-5.64l.43-.43c-.29,1.82.66,4.59-.43,6.07h0Z"/>
  <path class="cls-50" d="M211.2,55.53c.09-.06.11-.28.25-.36l.18,4.49-.43-.22c.16-1.2-.11-2.66,0-3.9h0Z"/>
  <path class="cls-8" d="M187.35,91.54s.3.5.87.43v.43h-1.3c-.07,1.86-1.66.1-1.3-.87.58.01,1.16,0,1.73,0h0Z"/>
  <path class="cls-113" d="M137.04,109.33c.69-.32.84-.25.43.43-21.86,4.6-32.32,20.17-28.38,42.52-.17.3-.68,1.47-1.04,1.58.14.88-.4,2.33-.33,2.99.06.49,1.12,1.4.69,2.37-5.49,8.57-6.79,21.38-3.85,31.24l-.48,1.3-2.19-.2c-.68-.78-.97-1.47-.41-2.41l-1.73,1.3c1.61-6.91,1.19-14.11,2.72-20.93.98-4.37,5.31-12.64,5.1-16.17-5.19-21.24,6.72-42.71,29.48-44.03h0Z"/>
  <path class="cls-118" d="M96.71,200.87l.59,1.25c-2.5,15.76-3.15,35.08-10.4,49.53-.29,1.17-4.04,2.28-1.9.42,4.42-15.84,7.98-32.5,9.54-48.59.37-.85,2.69-5.62,2.17-2.6h0Z"/>
  <path class="cls-32" d="M94.54,203.48h.86l-.5,4.5-.36.28-.76-.05c-5.72,13.81-4.47,29.88-8.78,43.87.1.32-.03.7.43.87.84,1.51-1.4,6.05-3.04,6.51l-.22-.43-.65.43c6.18-18.93,3.45-38.36,13.01-55.97h.01Z"/>
  <path class="cls-61" d="M177.81,91.98c.38.12.37.27,0,.43,2.02.92-1.04,9.76-.43,12.58-.24,0-.61-.33-.87-.43l-.91.21c-1.13-5.96-4.73-11.65-5.17-17.56h.43c1.24,1.07,5.58,4.26,6.94,4.77h0Z"/>
  <path class="cls-117" d="M161.76,98.05c-7.41,4.59-15.93,9.52-24.29,11.71l-.43-.43c7.31-4.93,18.26-8.11,25.15-13.45,1.09,1.49,0,1.55-.43,2.17h0Z"/>
  <path class="cls-83" d="M165.23,81.56c1.41.24.73.72,1.73,1.74.56.66.32.88-.43.43.31,3.16.96,6.48,1.96,9.95l-.66.89-.86-.43v.87c-.59.85-.68-1.03-.68-.94.39,1.41.75,2.81-.19,3.98-1.03-.73-.06-4.33-.44-4.77-.48.52-1.37.64-1.73.87,2.38-3.79.36-8.42,1.3-12.58h0Z"/>
  <path class="cls-113" d="M100.18,191.76c1.34,2.16-1.26,6.83-2.5,8.92l-.97.19-.22-.43-.65.43c1.19-2.55,3.22-6.97,3.9-9.54.09.21.27.3.43.43h.01Z"/>
  <path class="cls-52" d="M170.87,87.2h-.43c-.65,2.7-5.39-2.57-3.47-3.9,1.12,1.13,2.82,2.96,3.9,3.9Z"/>
  <path class="cls-101" d="M165.23,81.56c-.31,2.96.42,6.7,0,9.54-.74-.41-.43-1.66-.43-2.39.1-.7-.44-9.17.43-7.16h0Z"/>
  <path class="cls-105" d="M179.54,92.41c.65,1.1.51,2.43.36,3.63l-.36.28-.85-.77c.1-1.14-.19-2.18-.89-3.14v-.43c.09.03,1.64.42,1.73.43h.01Z"/>
  <path class="cls-3" d="M221.18,268.55c4.77,8.59,7.15,18.79,12.45,27.44,2.96,5.4,4.45,11.01,4.46,16.82.67.13.96-.52.86-1.96l.44-.21c.04,6.26-.71,12.43-.91,18.76l-.53-.35c-.28-3.3.75-7.25-1.33-10-.85-7.72-2.72-15.36-6.1-22.36,9.3,39.22-14.16,66.67-5.35,82.4.23-1.32.78-2.01,1.65-2.08,5.92-8.97,3.15,10.02,3.23,12.8-.6,4.26.78,7.86,1.54,11.93.56,1.84-.89,1.18-1.89,1.3,9.45,28.55-6.75,59.58-9,87.22,1.45,1.96,1.94-1.97,2.07-3.61-.18-1.7,2.21-8.39,3.61-7.24-.44,4.69-1.58,11.64-1.31,16.27.17,2.02,1.29,4.2,1.34,6.06.05,2.01-1.07,3.63-.82,5.55,2.19,2.85,3.27,6.42,5.57,9.2,4.89,4.19,14.99,12.86,2.39,13.7-1.36.67-2.42.32-3.89.43-2.95,1.01-2.94,1.17-5.67-.03-1.74,1.04-3.69,2.23-5.85,1.31-2.34-1.55-6.18-3.45-7.07-6.59-.78-2.45.33-1.87-2.04-3.38-5.62-3.71-2.04-8.55-1.29-13.67-1.12-5.64-.92-10.87.86-16.27,1.69-8.82-2.18-20.04-1.3-27.77l1.4-5.48c3.45-5.53,3.71-10.97,3.36-17.35,1.34-4.04-.93-3.32-1.29-1.03.83.84.73,1.04-.43.87-1.31,2.06-.79-1.45-1.04-2.15,4.9-10.43,2.57-21.58-4.41-30.44,0-1.19-.41-3.18-1.84-3.17-1.44-12.79-6.87-25.23-6.25-38.44.57-.04.95.31,1.39-.42l-.43-2.6c-.58-.75-.69-1.5,0-2.17-.57-1.76-.3-5.29.87-3.04l.89.76c.53,5.9.96,22.13,10.13,19.26,9.9-14.47-5.67-43.46-3.23-60.13-3.28,9.04-4.06,19.16-7.36,27.96-1.04,3.88-.74-.49-1.28-1.79,2.15-22.04,12.86-42.92,16.19-64.69l1.14-.77c.61-2.91,1.36-2.04.87.43,1.76,3.71-.88,8.31-1.48,12.17-11.05,24.43-1.33,48.06,1.49,72.63,3.67,1.4,5.45-.21,5.34-4.85,10.66-28.83,10.38-59.65-1.08-88.27.06-.96-.69-4.82.93-2.96h0Z"/>
  <path class="cls-3" d="M225.95,213.89c1.99,8.7.97,17.41,1.73,26.03.52,1.24.08,1.68-1.3,1.3.03,7.33,3.7,14.75,5.2,22.13,1.2-.69,1.37,3.04,1.74,3.47,1.49,16.45-9.6-19.42-9.88-21.59-1.4,2.19-2.13,4.74-2.18,7.63l-.94.51-.43,3.47c2.05.44-2.26,2.78-1.3-1.74-.39.02-.67-.13-.82-.46,2.43-21.86-14.48,44.12-16.03,46.33-.61,2.13-2.89,13.37-4.4,14.88-.77,2.91-1.31,1.29-.87-.87-.73-6.97,2.47-13.91,3.97-20.66l-3.73-11.37c-3.1,5.77-4.09,11.92-4.11,18.57l-.89.45c-1.04,2.09-2.16-4.69-1.52-5.98-.51-.21-1.01-.53-1.52-.96-1.89.93-4.97,1.2-6.51.43-.46.43-1.18.43-2.17,0-.67.45-1.47.47-2.38.05.43,2.08.21,3.8-.65,5.16.13,3.44-.54,1.69-1.79.22.47-2.34-3.01-17.74-3.92-17.92-.69-.14-4.52,11.95-3.57,13.46l-.7.78c.72,6.11-6.15-10.61-4.77-12.58-.58-3.5,3.95,3.43,3.6,5.11.37-.44,3.71-10.38,3.7-10.96,0-.65-3.51-7.06-4.14-7.75l-.99.59c-.49,2.09-.92,2.53-1.3,1.3-1.17-.13-1.05-.39,0-.87l.43-2.17-.86-.47c.17-5.52-6.38-9.21-7.38-14.28-2.17-.02-.81-2.32.44-3.18-.39-1.55-.35-2.84,1.34-3.52,2.44-1.6,3.87-5.81,2-7.93l-.31-2.73-1-.58c-.32-2.64-1.09-5.11-2.32-7.42l.28-1.11c-.81-1.46-.03-2.86,2.35-4.21-.14-2.43.62-6.24,3.29-4.03.82.23,1.3.97,1.42,2.2,1.99,4.19,11.6,3.8,15.54,3.3,2.07-.26,2.96-2.83,3.31-4.6l.99-.46c.61-1.53-1.01-13.16,3.41-7.99-.63,4.19-.2,8.01,1.28,11.47,2.2,2.74,18.45,2.98,18.21-3.19,3.11-1.47,4.21.66,4.74,3.8l.8.85c1.31.22,2.26.96,1.92,2l.29.97c-2.71,2.03-4.9,15.4-3.25,17.28,2.78,3.16,14.76-7.59,15.6-10.98.78-3.16.46-13.47-.75-16.25-2.41,3.2-5.41,5.84-9,7.91l-1.15-.22c-2.01,1.64-4-.57-1.3-.87l-.27-.9c5.03-2.62,10.03-6.23,11.02-12.24,1.87-1.76,1.36-.5,1.82,1.43l-.02-.04Z"/>
  <path class="cls-77" d="M228.12,196.97c-1.15,4.82-2.18,9.33-2.17,14.32,0,.53-.49.44-.87.43l-.84-.45.39-5.24c-4.98,6.77-17.76,8.76-11.27,19.57-.22.22-.62,1.1-.43,1.3l1.73-.43c.7,1.12-.77,1.99-1.73,1.3-.5-1.03-1.8-.88-2.38-1.28-2.24-1.53-1.45-4.28-1.99-4.77-.86.62-1.4-.59-2.13-.9l-.72-.87c.13-4.92,2.53-11.21-5.76-10.18l-.02-1.1c2.02-.13,4.56.55,5.85-1.3,5.05,3.68,2.38,5.25,4.77,6.06.53-.34.62-1.15,1.07-1.49.07-.05,1.23-.65,1.31-.68-.08-.37-.04-.85.27-.93,6.27-1.12,10.87-7.35,13.1-13.1l.94-.29.22.43.65-.43v.03Z"/>
  <path class="cls-79" d="M238.52,334.93c-1.2,11.82-3.58,23.7-7.78,34.95.63,8.77-.94,18.92-.03,27.52-3.2-5.03.53-11.65-.42-17.58-.15-1.59-1.04-2.76-.45-4.55l-3.03,1.74c4.84-18.02,11.35-36.35,10.24-55.68l.6-.72c1.4.9-.51,8.15.86,8.24.2-4.82-.19-10.26.87-14.75-.09,7.02-.7,13.84-.87,20.82h0Z"/>
  <path class="cls-19" d="M227.25,478.54c-1.06,2.57-1.17,6.04-1.73,8.68-.5-1.05,1.65-9.01-.43-6.94,3.1-24.35,14.21-51.25,5.24-76.64l.84-.58c.02-.13.72-.74.43-1.3,9.45,25.78-.65,51.12-4.34,76.79h-.01Z"/>
  <path class="cls-32" d="M238.96,298.49c.44,4.94.83,10.23,0,15.18h-.86c-.43-13.47-2.03-27.48-5.59-40.71l.39-1.8c.73-.52.46-2.12.43-3.04,2.76,9.7,4.48,20.48,5.64,30.37h0Z"/>
  <path class="cls-117" d="M233.32,266.82c-3.86-7.82-3.66-17.43-6.94-25.6.7-.62,1.58-.18,1.3-1.3,2.65,9.62,4.89,16.6,5.64,26.9Z"/>
  <path class="cls-62" d="M239.39,303.69c-.91-1.31-.28-3.55-.43-5.21l.43-.43c0,1.87,0,3.77,0,5.64h0Z"/>
  <path class="cls-24" d="M238.52,334.93c-.03,1.3.03,2.61,0,3.9l-.43-.43c.11-1.1-.42-2.76.43-3.47Z"/>
  <path class="cls-107" d="M225.95,213.89c-.15-.38-1.11-1.98,0-2.6v2.6Z"/>
  <path class="cls-107" d="M227.25,233.41c.05-.62-.11-1.26.07-1.88l.36-.29c-.02.75.23,1.62-.43,2.17h0Z"/>
  <path class="cls-3" d="M152.66,246.43c3.65,1.53.96,5.05-1.73,3.04-.48.38-.89.54-1.3.15,1.5,26.66,9.05,52.03,17.17,77.36,3.36,12.03,5.73,24.95,3.22,37.03-.32,1.01-.67,3.35.43,3.47-.4-1.4-.65-2.79,1-2-.61,6.17-3.02,34.96-8.17,36.99,1.38,1.17,1.17,2.81-.64,4.92l.04,1.49c-6.04,8.81-9.37,19.94-4.2,29.95l-.17,1.53c.47,1.14.28,1.43-.87.87l-.99-.07c-.82-1.75-1.36-3.61-1.61-5.57.9,4.22,1.19,8.56.87,13.03l-.87.64.9.61c1.41,4.27,2.93,8.5,4.57,12.69l-.26,1.66c.47-.02.81.19,1.01.62-.14.99-.69,4.53-.57,5.45-.52,2.83-1.29,2.24-.87-.43l-.94-1.13c-.31-3.2-1.2-6.35-2.56-9.24.36,8.14.85,17.12,1.77,24.69,1.24-3.54.64,6.07.91,6.69.26,4.15,3.7,8.8,1.7,12.84-.17,2.67-.16,5.12.43,7.81.52,2.91,1.83,6.13-.07,8.83-1.04,1.49-3.19,1.74-3.64,2.44-.47.74-.31,3.68-1.62,5.11-.17.19-3.82,2.97-4.06,3.1-.62.35-1.97.42-1.9.92-1.6.94-4.24-.58-5.49-1.21-2.23.48-3.53,1.17-6.03-.07-3.6-.68-11.24.37-9.71-5.43.39-2.56,6.73-6.72,8.65-9.13.96-1.2,4.59-7.16,5.02-8.43-1.02-6.75.93-13.85.19-20.85.28-1.23-2.3-13.09,0-8.68l1.11.94c1.14,3.84,1.91,7.74,2.32,11.72l1.35-.41c-2.61-29.01-17.25-57.7-9.43-87.08l-.99.21c-1.6,1.41.35-4.42.43-5.21,1.66-2.22-2.18-30.95,3.9-21.69.92.1,1.5.91,1.74,2.43,3.28-5.08,2.4-12.16.98-17.89-7.18-20.46-10.63-42.13-6.56-63.88-4.6,9.65-6.44,20.66-7.33,31.19h-.54c-.11-2.37-1.93-16.5.43-16.05,1.47-21.95,26.52-44.78,14.33-67.19-2.04,8.62-3.97,18.28-9.13,25.54-1.48-.5.26-6.79,1.3-7.38,3.42-12.85,5.13-19.28,5.13-19.28-.4-1.16-.37-2.11.08-2.85-1.64.43-1.18-1.24-.87-3.04.24-2.47,1.36-1.72,2.72-1.28,2.52,3.17,5.74,5.67,8.96,8.09l.46,1.43h0Z"/>
  <path class="cls-13" d="M182.15,295.45c1.15.24,1.08.4,0,.87-2.56,11.16-1.29,22.64-4.55,33.85-4.43,13.97-4.57,27.42-6.73,42.07-.03-2.28.03-4.72,0-6.94l-.46-.77c2.98-22.74.68-44.63-4.31-66.91l.86.43v-.87c2.74-1.39,5.71,20.19,6.24,22.91,1.9-5.19,2.08-11.11,2.04-16.7l.82-1.44h.87v-1.3l.95,1.29c2.25,11.28-4.75,21.32-3.07,32.25,3.86-12.55,3.68-25.84,5.16-38.74l.63-.78c.51-.03,1.28.72,1.53.78h.02Z"/>
  <path class="cls-55" d="M188.65,295.02c.47.81.09,1.22-.55,1.73.14,5.58,3.14,36.77,4.86,36.15.51-.18.61-6.43-.15-7.41-2.7-7.3-3.61-14.9-2.93-22.72l.94-1.23c.58.15,1.36.91,1.69,1.39-.43,5.93.39,11.78,2.02,17.51.03-2.36.67-4.18,1.92-5.45v1.73h.43l.44-.87c-.46,16.65-2.13,34.47.45,50.86-1.5.75-.7,2.86-.88,4.24-.25-22.09-8.84-42.88-9.98-64.85-.27-3.72,1.41-11.81-4.76-9.77.08-.19-.05-.6,0-.87,2.57.54,4.16-1.31,6.51-.43h-.01Z"/>
  <path class="cls-33" d="M165.67,400.88l-.36.28c6.08,37.47.93,33.41-4.84,67.84l.43-3.91-.86.44c.89-8.3,2.54-15.66-2.92-23.04l.32-1.26.87-.87,1.42.75,3.14,5.73c5.4-12.69,3.33-26.43.98-39.56-.28.43-.75.28-1.2.1l.88-3.26c.11-.63-1.74-1.02-.83-2.34.11-.16,2.7-.95,2.99-2.22-.05.4,0,.88,0,1.3l-.02.02Z"/>
  <path class="cls-12" d="M204.7,406.95l-.79.49c-2.35,13.17-4.31,26.82,1.2,39.49l3.3-6.01,1.06-.13.87.43.45,1.05c-3.96,6.46-5.58,12.01-2.86,19.37-.05,1.28-.38,2.1-1.04,3.19-.02.94.79,2.49.41,3.72-.96-14.64-8.79-28.44-7.81-43.18.5-8.02,4.1-18.68,2.61-26.24,1.52,1.07,1.72,3.72,1.35,5.34.16.66,1.66,1.21,1.25,2.47h0Z"/>
  <path class="cls-48" d="M172.6,357.93c-.05,2.09.04,4.2,0,6.3l-.43-.22c.16-1.95-.48-4.46.43-6.07h0Z"/>
  <path class="cls-69" d="M182.58,192.19c.56,3.17-.1,6.72.42,9.27.05.26,1.2.28,1.31,1.82-.4,3.17-1.09,3.47,2.17,5.39.67.98-.08,3.28-1.3,3.47-3.42.21-1.9,5.11-2.14,7.64-.07.69-.44.96-.46,1.04l-.91-.36c-.32-2.99,1.36-9.25-1.61-11.32-1.49-1.21-13.95.27-16.2.92-3.84,1.15-1.75,6.49-1.78,9.46l-.75.86-1.96.4c-.57,1.02-.2,3.41-.6,4.08s-3.2,1.98-3.07,3.77c-2.57-.19-13.92-8.23-12.58-11.28-.34.24-.89.41-1.04.05.08-.46-.72-8.08.6-7.42l.85.82c-1,4.63,7.71,13.84,11.52,13.82,1.93,0,.73-10.76-2.24-11.04-3.85-2-7.38-4.04-9.79-7.88-1.02.44-1.31,1.23-1.64-.92-.21-2.36-1-5.53-1.73-7.81l.86.43c-.17-.89.07-1.15.44-1.74l.85.6c.86,6.1,6.75,13.12,12.87,14.17.61-2.41,2.46-1.65,4.06-1.32-.52-2.06,1.8-2.81,2.17-4.34.64-.42,1.55-.2,2.72.67,16.72-1.63,19.18,2.65,18.02-12.5l.95-.76h0Z"/>
  <path class="cls-85" d="M123.17,203.91c0,5.6-1.26,10.72-2.6,16.05-.16-1.29-.61-3.1-.47-4.44,3.78-9.83-4.18-9.71-3.44-14.65-.25-.34-.34-.75-.87-.87l.24-1.42c5.76-5.08,10.86-10.7,12.5-18.45l1.13-.96v.87h.43c-.16-.79.7-1.05.87-1.3-2,8.6-5.44,16.75-7.81,25.16h.02Z"/>
  <path class="cls-39" d="M119.7,223.87c-4.79,17.32-15.03,28.4-21.68,44.25-1.01-1.65-.51-3.18.95-5.17l-.95-.03-.43-.43c1.74-7.63,8.08-14.02,12.43-20.53,4.71-5.52,5.41-13.34,9.25-18.95.02.38-.03.76.43.87h0Z"/>
  <path class="cls-49" d="M142.25,206.08c1.72-.64,2.03,3.48.43,3.9-1.2,2.29-.56,6.12.72,8.21-1.38,5.29-2.08,11.19-1.02,16.74-.19.94-1.24,2.53-1.87,3.24-1.51-11.32,2.26-22.08.87-33.41l.87,1.3v.02Z"/>
  <path class="cls-83" d="M133.57,179.18l.98.17c.67,1.19,3.25,9.82,2.92,10.67-.21-1.25.29-.81,1.3-.87,1.49-.37,2.31,2.56,1.3,3.47l-.65-.43c-.78.52-.72,1.3-.65,2.16-2.66-4.74-4.79-10.27-6.07-15.62.11.15.66.27.87.43v.02Z"/>
  <path class="cls-94" d="M141.38,217.79c.2-3.36.13-7.46,0-10.85.74.41.43,1.66.43,2.39-.28,2.73.68,5.99-.43,8.46Z"/>
  <path class="cls-73" d="M123.17,203.91v5.86l-.43-.22c.21-2.04.1-3.54.43-5.64Z"/>
  <path class="cls-64" d="M136.61,403.48c-1.84,14.71-4.35,29.38-.14,44.27.18,2.01,7.1,29.06,5.78,30.35-2.34-2.29.79,7.39,0,8.68-3.26-29.9-16.63-53.86-6.07-84.6l.07,1.02.36.28h0Z"/>
  <path class="cls-20" d="M142.25,497.19c-.06-2.3.08-4.64,0-6.94,1.28,1.71.09,4.94,0,6.94Z"/>
  <path class="cls-90" d="M149.62,531.9s.43.18.44.43c-.98-.06-2.85.32-3.47-.43h3.04,0Z"/>
  <path class="cls-85" d="M140.95,376.58l-2.17-1.3c-2.97,7.35.93,14.95-1.74,22.99.24-2.9-.12-25.6,0-29.28-4.92-12.13-7.37-26.54-7.81-39.7v-.87c1.18-1.37-.33-4.71.87-6.07l.83,1.44c-1.16,18.51,5.78,35.62,10.01,52.79h.01Z"/>
  <path class="cls-117" d="M134.87,270.72l.85.57c-4.1,18.86-7.55,38.76-6.48,58-2.63-20.17.16-41.11,5.2-60.74,0,.25.43,2.05.43,2.17h0Z"/>
  <path class="cls-103" d="M128.8,300.22c-.14,1.81.46,4.18-.43,5.64,0-2.02,0-4.05,0-6.07l.43.43Z"/>
  <path class="cls-9" d="M132.27,420.4c.04,1.31.32,3.4-.43,4.34,0-1.63-.36-3.94.43-5.21.02.29,0,.58,0,.87Z"/>
  <path class="cls-37" d="M248.93,224.3l1.05.91c2.24,12.68,16.77,26.22,20.63,37.7l-.65-.43-.22.43-.69.13c1.08,1.3.3,1.87-.18,2.91-6.53-15.04-16.23-25.47-20.82-42.08l.87.43h.01Z"/>
  <path class="cls-79" d="M241.13,187.86c-1.37.49.77,3.41,1.3,4.34.18,1.58,4.54,9.88,5.87,9.63.04-1.16.4-1.91,1.07-2.26.85,1.8,1.21-.85,2.13,2.39-1.92,2.47-3.5,5.1-4.75,7.89l1.31,7.94c-.17.81.13.67-.88,1.13v.6c-1.44-5.16-2.39-10.22-2.59-15.62-1.69-8.32-6.39-17.35-7.81-26.03l.86.43v-.87c.33-.06.82-.11.92.11.39,1.49,4.29,10.12,2.55,10.3l.02.02Z"/>
  <path class="cls-85" d="M232.02,163.56c2.84,5.13-3.67,34.08,1.98,13.14l1.05-.99.03,1.72c.27.11.63-.05.84.02-2.13,5.55-4.12,11.7-6.94,16.92l.4-1.53c-.66-.95-.88-.61-1.71-.21-.49-1.11-.35-2.5.4-4.19-.38.99-.94,1.38-1.7,1.15-.54-1.13-1.44-2.1-1.3-3.47l.87-.87c.08-.66.5-1.12,1.26-1.38,2.19-1.06,3.51-6.54.91-6.86-.83-1.28-.65-2.26,1.08-3.37.58-2.42.94-4.91,1.09-7.47,1.76-.63,1.21-.71,1.73-2.6h.01Z"/>
  <path class="cls-44" d="M245.03,209.55l-.43.22c-.08-1.95.11-3.93,0-5.86.91,1.55.27,3.82.43,5.64Z"/>
  <path class="cls-11" d="M159.59,469.86c.02.58-.02,1.16,0,1.73h.43l.44-1.3c-.75,4.52-.92,9.4-1.73,13.88h-.87c-.86-3.98-.45-9.77.78-13.87l.96-.44h-.01Z"/>
  <path class="cls-56" d="M159.16,482.01c.2-1.35-.5-3.34.43-4.34-.11,1.75.26,2.65-.43,4.34Z"/>
  <path class="cls-80" d="M166.53,410.85c-.72-.41-.44-1.8-.43-2.6-.26-.31-.32-.61,0-.87.36,1.48.28,2.03.43,3.47Z"/>
  <path class="cls-16" d="M160.9,500.66c.85.57.31,2.1.43,3.04h-.87c.06-.84.42-1.76.43-3.04h.01Z"/>
  <path class="cls-36" d="M166.1,407.38v.87l-.36-.29c-.2-.61,0-1.3-.07-1.88.54.25.41.87.43,1.3h0Z"/>
  <path class="cls-74" d="M160.46,508.47c-.14-.22-1.1-1.71,0-2.17v2.17Z"/>
  <path class="cls-21" d="M298.81,316.28c-.82.72-.31,2.45-.44,3.48-.25,0-.38-.43-.43-.44v-4.34h.43c-.12.44.45,1.09.44,1.3Z"/>
  <path class="cls-109" d="M303.14,311.5c.79-1.87.32,3.43.43,3.91-.28.02-.38-.43-.43-.44v-3.47Z"/>
  <path class="cls-106" d="M272.35,275.93c.05.48.03.97-.07,1.44l-.36.29c-.06-.83-.36-1.39-.43-2.17l.86.43h0Z"/>
  <path class="cls-114" d="M206.43,519.32c1.42-.03,1.42,1.53,2.61,2v.6c-1.66-1.05-1.6-.75-2.61-2.6Z"/>
  <path class="cls-4" d="M209.03,485.48c-.83-1.23-.45-3.7-.43-5.21.8,1.27.43,3.57.43,5.21Z"/>
  <path class="cls-4" d="M208.6,491.98c.12-1.49-.46-3.65.43-4.77,0,1.49.36,3.65-.43,4.77Z"/>
  <path class="cls-96" d="M222.04,531.9c-1.27.88-2.89.28-4.34.43,0-.25.43-.38.44-.43h3.9Z"/>
  <path class="cls-82" d="M208.6,480.27c0,.29,0,.58,0,.87-.93-1-.24-2.98-.43-4.34.14,1.12.37,2.03.43,3.47Z"/>
  <path class="cls-100" d="M206,518.45c-.43-1.01-.98-2.54,0-3.47v3.47Z"/>
  <path class="cls-82" d="M208.6,491.98c-.07,1.15-.26,1.39-.43,2.17.09-.81-.36-2.16.43-2.6v.43Z"/>
  <path class="cls-18" d="M70.26,319.31c.3.37.86.72,1.13,1.34,1.41-.39,3.33-.38,4.07-1.77.05,3.24-5.05,3.86-5.2.43Z"/>
  <path class="cls-40" d="M69.82,318.88c-.58-.84-.43-1.25-.51-2.32l-.36-.28c.2-.14.34-.93.86-.87v3.47h.01Z"/>
  <path class="cls-15" d="M141.38,241.22c-2.95,8-3.08,17.17-6.51,24.73,1.19-9.51,1.74-18.38,5.64-27.33.13,1.63.26,1.37.87,2.6h0Z"/>
  <g id="CHEST">
    <path class="cls-105" d="M196.02,123.21c12.27,4.28,47.79,13.69,37.63,31.78-6.83,17.69-19.71,20.03-36.76,14.86-6.05-1.84-8.45-2.7-9.84-9.24-1.47-6.91-1.78-19.73.19-26.45,1.1-3.77,3.03-6.27,3.15-10.51,1.32-2.22,3.74-.99,5.64-.43h-.01Z"/>
    <path class="cls-105" d="M174.22,122.44c4.21-.76,3.25,2.6,3.69,5.23,4.96,9.02,4.99,24.69,2.38,34.68-1.67,8.72-19.79,10.17-26.94,9.85-10.95-1.1-18.42-12.18-20.87-22.07-4.95-12.65,32.49-25.44,41.74-27.68h0Z"/>
  </g>
  <g id="BICEPS">
    <path class="cls-38" d="M241.13,187.86c-3.84-9.24-6.63-25.1-3.79-35.24.53-1.77.98-2.65,3.02-2.42,20.4,4.72,24.38,37.32,18.14,53.96-2.31,1.25-7.13-4.73-8.48-6.33-3.18-3.07-7.13-5.73-8.9-9.97h0Z"/>
    <path class="cls-34" d="M129.67,179.18c-2.47,10.45-6.49,13.86-13.88,20.82-4.3,4.06-6.32,7.4-8.13-.77-4.06-13.86,2.83-52.48,22.4-48.01,2.72,8.32,1.35,19.45-.4,27.95h0Z"/>
  </g>
  <g id="DELTOIDS_ANTERIOR">
    <path class="cls-98" d="M146.1,115.45l-.16,2.12c-11.82,8.26-11.47,19.04-19.29,28.86-2.61,2.73-6.66,4.44-9.39,7.09-2.06,1.5-2.77-.94-3.32-2.63-6.74-18.32,11.84-46.88,32.16-35.43h0Z"/>
    <path class="cls-6" d="M230.62,112.45c16.83,1.17,27.31,20.41,23.84,36.03-.33,1.6-1.4,6.78-3.58,5.11-17.94-9.67-14.37-25.28-29.21-36.31-1.08-2.83,7.1-4.33,8.95-4.83h0Z"/>
  </g>
  <g id="UPER_CHEST">
    <path class="cls-38" d="M174.34,121.48c-15.38,3.76-31.5,10.17-42.5,21.26,3.58-10.39,11.35-25.79,24.08-25.6,2.73.4,18.51,1.2,18.42,4.35h0Z"/>
    <path class="cls-6" d="M215.97,117.14c10.03,3.98,16.67,15.78,19.95,25.6-10.62-11.17-27.45-17.44-42.5-21.26.85-3.37,10.58-2.84,13.63-3.5,2.58-.3,6.45-1.33,8.92-.83h0Z"/>
  </g>
  <g id="ABS_UPPER">
    <path class="cls-38" d="M160.99,190.8c-2.2-5.46.7-15.32,7.41-16.9,2.58-1.17,10.9-4.32,13.12-2.55,1.76,1.39,1.15,8.39.42,10.46-1.04,2.92-8,3.88-10.94,5.11-2.63.86-7.91,5.57-10.01,3.89h0Z"/>
    <path class="cls-98" d="M207.3,183.95c2.5,1.12.68,12.18-3.47,6.94-10.17-7.99-21.31-2.23-18.32-18.55,1.46-3.1,8.54-.5,11.06.43,5.78,2.13,10.03,4.39,10.73,11.18h0Z"/>
  </g>
  <g id="DELTOIDS_EXTERIOR">
    <path class="cls-107" d="M258.91,157.05c-.47,1.3-.88,3.36-1.95,4.33-5.89-5.41-2.98-6-1.19-12.9,2.81-16.53-5.65-31.2-21.14-36.99,22.3.36,29.22,27.47,24.29,45.55h0Z"/>
    <path class="cls-116" d="M133.14,111.5c-17.97,5.93-26.95,27.9-18.4,44.72l-3.5,5.17c-9.29-18.19-1.93-48.81,21.9-49.89Z"/>
  </g>
  <path class="cls-107" d="M263.68,192.63c-.34,1.01-.72,2.57-1.73,3.04,1.45-10.19-.29-20.62-3.91-30.17l1.74-7.57c6.08,10.47,7.74,22.94,3.9,34.71h0Z"/>
  <path class="cls-107" d="M108.42,159.22c2.4,7.36.52,8.5-1.53,15.61-1.6,6.96-2,13.73-1.08,20.83-6.27-11.57-3.94-26.27,1.96-37.74.07-.03.61,1.17.65,1.3Z"/>
  <path class="cls-99" d="M215.54,185.25c.09.1-.29,1.19.87.87-1.17.3-2.39,1.17-3.87.9-.63,2.83-1.71,5.68-1.34,8.64l-1.72-2.43c-.16-.71,1.73-1.36.2-2.33-.9,1.31-2.35,2.33-1.97,4.08l.89.46c-.22.83-1.06,1.53-1.74,1.96-.21-.51-3-3.98-3.47-4.34l1.27-1.09-.84-1.08c4.62,2.31,3.48-4.25,3.47-6.94,1.36-.26.89-1.57.96-1.66.26-.31,1.53-.47,1.64-1.38,1,4.12,3.42,4.43,5.64,4.34h0Z"/>
  <path class="cls-98" d="M249.37,199.57c.21,1.17-.16,2.35-.44,3.47-3.32-1.17-7.19-7.54-6.5-10.85,1.65,2.86,5.69,4.3,6.94,7.38Z"/>
  <path class="cls-117" d="M162.63,98.92c-1.44,2.16-3.52,4.21-4.77,6.07l-.43-.87c1.35-1.97,2.98-3.77,4.34-5.64l.87.43h0Z"/>
  <path class="cls-6" d="M186.92,95.01c-.23.82.64,3.91-.65,3.47-1.96-1.78-.72-3.17-.22-5.2l.86,1.73h0Z"/>
  <path class="cls-69" d="M156.56,208.25c.11-.8-.08-1.77,0-2.6.15.46,1.15,1.98,0,2.6Z"/>
  <path class="cls-63" d="M202.1,42.08c-.5,1.9-.68,5.86-.43,7.81-.91.03-1.37-.71-1.95-1.3h-.21v.87c-1.36-3.36.49-5.33,1.3-8.24.17.63.66.9,1.3.87h-.01Z"/>
  <path class="cls-3" d="M187.35,60.3c1.24.59,1.48,1.74,1.72,2.99-.1-.71.11-1.07.88-1.25.18-2.19,1.78.03.87,1.74,1.16.91.51,3.65-.12,4.92l.55.29c.61-.57.83-.33.43.43l.29.93c.49-.7.97-1.31,1.88-.93,3.34-1.34.11,4.12-.34,5.51-.18.32.1.78-.74.56-2.53-5.41-10.09-5.49-14.96-3.47-.09-.19-.33-.29-.43-.43-1.32.58-2.61-2.28-1.3-3.04.73-.08,1.3-.23,1.73-.43-.25-.73.25-.96.43-1.3,0-1.3.28-2.02.87-2.17,1.19.36,1.35-.59,1.73-.87,2.65-1.93,4.07-1.78,6.5.43.37-.77-1.55-5.08,0-3.9h.01Z"/>
  <path class="cls-63" d="M199.49,49.89s.53.03.43.43c-.45.2-1.31.69-1.71.97-14.3-3.41-11.14,13.89,1.27,9.49.5.26,1.64.66,2.18.82-.28,1.87,1.04,1.99,1.74,3.04.13.57.11.75-.43.43-.13.14-.3.25-.43.43-.65-.08-.38-.85-.43-1.3-3.14.52-5.12,5.95-7.37,7.81-.44-.95.41-2.25-.87-2.6-.09-.85-.5-.79-1.22.15l-.95-.15-.43-.43-.21-1.08c1.29-1.49,2.81-2.72,4.58-3.69-1.8-.58-3.4-.72-4.8-.43.13-.83-.03-2.51-.87-1.74-1.03.03-1.75-.7-2.18-2.19-.17.2-.56.58-.79.71-.05.2-.08.4-.07.61-4.52-8.04-.35-3.42-.86-9.54,1.06-.05.07,2.69,1.3,2.6,1.85-5.14,7.42-6.33,12.15-4.34h-.03Z"/>
  <g id="NECK">
    <path class="cls-105" d="M200.79,83.3c5.25,1.33-11.01,42.86-14.29,37.12,3.06-10.59,7.61-22.34,9.95-32.78,1.5-1.22,3.08-2.85,4.34-4.34Z"/>
    <path class="cls-67" d="M190.39,91.54c-1,4.56,2.48,9.47-.22,13.44-1.59-1.72-2.92-10.1-1.95-12.58-1.15-.5,2.01-.71,2.17-.87h0Z"/>
    <path class="cls-105" d="M185.62,92.41h1.3v2.6c-1.25-.03-1.12,3.01,0,2.17l.36.28c-.04,2.14.68,4.14.94,6.23-3.25,4.48-4.02-9.26-3.04-10.84h-3.47l1.32.66c-.15,1.6.56,26.24-.88,26.67-5.95-15.19-1.24-14.06-1.3-27.76,1.54.1,3.21,0,4.77,0h0Z"/>
    <path class="cls-105" d="M166.53,83.73l2.7,3.36,1.2.11c4.6,10.41,7.29,22.66,10.82,33.21-3.67,5.42-18.06-33.97-14.73-36.68h0Z"/>
    <path class="cls-6" d="M166.97,95.01c1.29,7.21,5.04,13.92,5.64,21.26l-8.67-1.3c2.48-6.85,2.27-14.05,2.17-21.26h.43c-.2.61.35,1.02.44,1.3h0Z"/>
    <path class="cls-6" d="M188.22,103.69c.72,6.66-.02,10.95-3.03,16.48-.25-6.79-.59-13.09,0-19.96,1.58,1.37-.09,4,3.04,3.47h0Z"/>
    <path class="cls-72" d="M177.81,92.41h.59c2.45,1.47.89,11.25-1.02,12.58-2.09-4.26.76-8.19.43-12.58h0Z"/>
    <path class="cls-107" d="M203.83,114.97c-2.46-.54-7.01,2.38-8.66.62l6.06-21.88c1.42,6.39-.6,14.55,2.6,21.26Z"/>
  </g>
  <g id="TRAPEZIUS_UPPER">
    <path class="cls-107" d="M229.85,109.76c-5.73.52-11.04,3.97-16.91,3.91,1.21-6.84-3.83-10.99-7.37-16.05l24.29,12.15h-.01Z"/>
    <path class="cls-98" d="M161.76,98.05c-1.52,6.21-8.42,6.63-6.94,15.62-1.01,1.02-13.91-3.65-16.48-3.91,6.59-4.68,14.98-7.05,21.82-11.36.41-.24,1.3-1.34,1.6-.35h0Z"/>
    <path class="cls-107" d="M162.63,98.92c.54-.81,1.03-2.5,2.17-3.04.74,3.77.15,7.49-.21,11.28-1.88,2.13-6.46,4.51-8.89,5.2-.23-4.68,3.21-10.71,6.94-13.45h0Z"/>
    <path class="cls-112" d="M164.36,109.33c-1.25,7.08-1.91,4.9-7.8,4.77l.74-1.21,7.07-3.56h-.01Z"/>
    <path class="cls-107" d="M202.96,95.45c1.45,2.93,11.81,14.22,8.47,16.91-2-.61-4.53-3.01-6.71-3.7-.46-.3-1.76-1.8-1.76-2.15v-11.06Z"/>
    <path class="cls-70" d="M203.4,109.33l7.8,4.12c-.43.72-.91.53-1.51.65-5.32,1.09-5.15.28-6.29-4.77h0Z"/>
  </g>
  <path class="cls-85" d="M203.4,69.42c.11-1.21.27-3.46-.43-4.34.14-.15.23-.34.43-.43.7,1.05.75,3.77,0,4.77Z"/>
  <g id="FOREARMS">
    <path class="cls-6" d="M268.45,194.36c7.06,18.76,4.5,41.51,14.31,59.87.6,1.28,5.55,10.92,2.6,10.41-9.21-24.47-35.87-43.46-17.79-72.89-.11,1.03.51,1.75.87,2.6h.01Z"/>
    <path class="cls-6" d="M82.4,259.44c6.32-12.81,9.65-24.19,11.66-38.44.93-6.09,1.16-14.47,2.65-20.13.83-2.92,3.46-5.91,3.47-9.11,17.62,25.2-7.27,50.39-18,72.45l-1.07-.21c.98-1.22.81-3.29,1.29-4.56Z"/>
    <path class="cls-98" d="M280.59,266.38l-1.7-.03c-6.27-17.67-31.22-35.99-26.92-55.93,8.49,3.87,10.45,14.69,13.66,22.99,4.22,11.15,12,21.63,14.96,32.98h0Z"/>
    <path class="cls-98" d="M88.85,266.33l-1.68.05c1.18-7.99,8.51-17.84,11.79-25.73,5.38-10.33,6.23-22.93,16.18-30.23l2.29,4.47c-4.87,19.75-20.01,33.68-28.59,51.43h.01Z"/>
    <path class="cls-98" d="M119.26,223c-3.97,17.51-17.69,29.64-25.16,45.55-.65.14-1.36-.36-1.25-1.02,7.98-17.04,19.7-32.59,25.11-51.04,1.42,1.33.92,4.55,1.3,6.51h0Z"/>
    <path class="cls-38" d="M270.62,262.91c-7.14-13.86-25.53-30.39-20.82-46.42,5.44,18.37,16.63,34.08,25.11,51.04-.77,3.65-3.47-3.54-4.29-4.62h0Z"/>
    <path class="cls-107" d="M120.13,217.79c-1.1-4.93-4.76-8.67-6.44-13.32l2.97-3.6c4.81,7.55,7.26,7.07,3.47,16.92Z"/>
    <path class="cls-107" d="M248.07,217.79c-4.34-6.19-.81-11.67,3.04-16.92.81.89,3.17,3.06,2.98,4.03-1.15,3.46-5.74,8.57-6.02,12.89h0Z"/>
    <path class="cls-116" d="M267.15,250.33c2.34,1.03,11.07,15.1,10.82,16.23-.12.55-1.13.71-1.5,1.12l-9.32-17.35h0Z"/>
    <path class="cls-6" d="M260.21,215.62c-1.07-1.12-6.17-5.35-6.47-6.36-.26-.88,1.25-2.51,1.91-3.15,4.33,2.57,5.14,4.37,4.55,9.51h.01Z"/>
    <path class="cls-41" d="M100.61,250.33l-9.32,17.34-1.49-1.07c3.03-5.71,5.87-11.93,10.81-16.27Z"/>
    <path class="cls-41" d="M107.56,215.62c-.38-5.69.07-6.27,4.55-9.54.5.88,2.19,2.23,1.91,3.18,0,0-6.46,6.36-6.46,6.36Z"/>
    <path class="cls-98" d="M83.7,265.08l1.79-5.8,3.85-5.91c-.85,2.77-1.96,12.29-5.63,11.71h-.01Z"/>
    <path class="cls-59" d="M284.06,265.08l-1.31.24c-2.11-3.65-3.29-7.87-4.33-11.95l3.85,5.91,1.79,5.8h0Z"/>
    <path class="cls-47" d="M97.58,267.25c-.87,1.38-.85,3.45-2.62,1.93,1.28-3.12,4.58-8.88,6.74-11.47.94,1.23-3.43,7.77-4.12,9.54Z"/>
    <path class="cls-43" d="M269.75,262.91l3.03,6.51-1.31.24c-1.35-3.04-4.63-9.7-6.06-12.82l4.33,6.07h.01Z"/>
    <path class="cls-107" d="M282.76,250.76c-6.47-13.31-7.49-28.41-9.54-42.95l.43-2.6c6.72,13.64,6.37,30.45,9.11,45.55h0Z"/>
    <path class="cls-38" d="M94.54,208.25c-1.93,14.97-3.63,29.82-9.54,43.82,2.64-14.83,2.4-32.16,9.11-46.42l.43,2.6h0Z"/>
  </g>
  <path class="cls-42" d="M219.88,257.71c.62,1.09.79,8.52,1.3,10.85l-.87.43-1.73-5.2c-.42,3.66-1.54,12.62-2.6,16.05.04-.57-.03-1.16,0-1.73h-.43c.19.61-.33.99-.44,1.3,1.05-8.03,2.5-16.31,3.47-24.3-.4,1.4.98,2.05,1.3,2.6h0Z"/>
  <path class="cls-58" d="M198.19,346.21v1.3h.43l.44-.87c-.43,3.7-.52,8.39-.43,12.15h-.87c0,1.01,0,2.03,0,3.04-1.33-4.81.18-10.68.43-15.62Z"/>
  <path class="cls-55" d="M198.19,366.6c-.74-.42-.42-1.79-.43-2.6.71.4.46,1.81.43,2.6Z"/>
  <path class="cls-12" d="M210.77,440.36c-.08-.79.07-1.47.87-1.74-.32.81-.66,1.25-.87,1.74Z"/>
  <g id="ABS_LOWER">
    <path class="cls-98" d="M199.83,228.75c13.24-3.8-1.58,28.99-3.03,34.27-2.04,5.15-4.62,13.85-11.84,10.31.64-13.41-2.52-28.3,1.33-41.21,3.02-4.28,8.97-1.96,13.55-3.37h-.01Z"/>
    <path class="cls-98" d="M163.77,228.7c1.69-.54,3.95.27,5.57.38,4.31.38,10.36-.9,12.59,3.89,3.05,12.57.07,26.39,1.1,39.29-8.94,13.43-24.51-41.63-19.26-43.56h0Z"/>
  </g>
  <g id="ABS_MIDDLE">
    <path class="cls-34" d="M199.93,208.68c1.79,1.33,5.47-.59,6.61,2.28.78,1.75.35,7.79-.1,9.86-.41,6.31-7.65,5.68-12.35,6.08-4.03.2-8.01-.36-8.8-5.09-.22-3.63-1.03-9.98,1.2-13.14,3.25-2.17,9.76.3,13.44,0h0Z"/>
    <path class="cls-107" d="M203.4,193.06c1.19-.93,4.47,3.19,3.47,4.34,2.16,10.6-2.59,9.78-11.05,8.23-3.41-.6-8.74.98-10.44-3-2.63-18.53,3.94-17.63,18.02-9.57Z"/>
    <path class="cls-107" d="M182.58,192.19c-.73,7.02,3.24,14.14-7.16,13.01-4.38.3-11.21,3.05-14.52-.43-2.82-7.6,4.67-13.39,11.16-15.52,4.35-1.6,10.47-3.8,10.52,2.94Z"/>
    <path class="cls-98" d="M182.58,220.83c-.69,8.28-8.53,5.89-14.49,5.6-7.92.2-7.22-8.42-7.21-14.08.3-5.21,13.5-3.96,17.16-4.57,6.8.28,3.94,8.44,4.54,13.04h0Z"/>
  </g>
  <path class="cls-2" d="M158.73,237.75c.12.6.82,1.52.43,2.61h1.74c-.58,2.32.65,2.34-1.21,4.18.81,1.26-1.33,3.45-2.06,4.5-2.79,1.3.46,2.76-2.58,4.76,1.8,7.29,4.48,14.56,6.27,22.05.08-1.9.67-2.88,1.75-2.96,1.2.31.62-.71,1.3-1.3-.13,4.29-3.16,8.47-1.3,12.58l-.87.43c-4.26-11.17-6.37-24.47-11.28-35.14l2.59-.45c.21-1.08-.21-1.79-.86-2.59,8.68,3.15,6.22-2.94,6.07-8.68h0Z"/>
  <path class="cls-42" d="M219.88,256.84c0-1.56.26-2.27.43-3.47-.16,1.08.45,2.76-.43,3.47Z"/>
  <path class="cls-2" d="M163.06,272.02l.07-1.88.36-.29c-.03,1.2-.3,1.53-.43,2.17h0Z"/>
  <g id="CALVES_FRONT">
    <path class="cls-98" d="M214.24,489.38c6.96-27.67.64-57.1,9.21-84.28,4.07-10.88,5.66,5.4,6.37,9.05,3.33,25.87-8.23,50.06-13.05,74.95-.45,1.3-1.57.45-2.53.29h0Z"/>
    <path class="cls-6" d="M209.47,440.79l-4.77,8.68c-6.25-17.1-3.68-26.77-1.74-43.82,10.12,9.63,12.6,22.3,6.5,35.14h.01Z"/>
    <path class="cls-98" d="M231.15,403.05c9.46,30.96-3.41,58.67-8.24,88.94l-2.85-.84c1.51-30.46,18.2-56.66,8.89-88.27.91-.64,2.07-1.87,2.2.16h0Z"/>
    <path class="cls-59" d="M207.3,464.22c-3.94-14.92.66-15.8,5.21-28.63,1.87,1.14.49,4.18.42,5.85.86,8.09-1.73,15.92-5.63,22.79h0Z"/>
    <path class="cls-43" d="M210.33,485.04c-.88-5.09-1.62-11.24-2.19-16.26.41-3.37,2.24-10.18,4.36-12.81-.22,6.66-.94,22.68-2.17,29.07Z"/>
    <path class="cls-34" d="M153.51,489.37l-2.15.45c-5.86-28.38-18.5-53.29-12.02-82.96,1-6.02,2.67-8.21,5.29-1.21,8.39,24.97,2.51,57.43,8.88,83.71h0Z"/>
    <path class="cls-34" d="M162.63,407.38c.4-.58,1.53-1.74,2.17-2.17,1.57,16.23,5.12,28.21-1.95,44.25-8.99-16.28-11.45-25.94-.22-42.08Z"/>
    <path class="cls-38" d="M136.61,403.48c.19-.69.64-1.31.44-2.17l1.75,1.96c-9.06,30.23,7.49,58.12,9.05,87.8l-2.99.91c-4.09-29.27-17.87-58.85-8.24-88.5h0Z"/>
    <path class="cls-35" d="M157.43,441.22c4.5,7.34,6.43,14.79,2.6,22.99-5.52-14.53-5.63-12.52-5.2-28.63l2.6,5.64h0Z"/>
    <path class="cls-116" d="M159.59,469.86l-1.27,7.19c-.11.61-.25,7.76-.9,7.99-1.45-9.48-2.23-19.45-2.17-29.07,2.59,3.62,4.01,9.27,4.33,13.88h0Z"/>
  </g>
  <g id="QUADS">
    <path class="cls-38" d="M220.31,268.99c14.08,37.49,11.9,59.05.67,96.33-.49.77-4.41.44-5.46.23-2.18-18.36-9.87-39.58-6.28-58.4,2.08-9.14,5.98-17.62,6.74-27.31.12-1.48,1.53-16.07,2.33-16.3,1.7-.5,2.52,4.41,2.01,5.45h0Z"/>
    <path class="cls-6" d="M218.57,255.1c-.53,38.49-24.73,73.7-20.38,112.8h-.86c-4.93-35.52-.23-59.31,11.5-92.84,2.77-6.67,3.96-24.11,10.18-26.9.22.27-.32,5.97-.43,6.94h-.01Z"/>
    <path class="cls-6" d="M198.63,358.79c-1.89-2.7-.19-9.06.43-12.15,1.38-9.88,4.39-22.63,7.8-31.67-1.21,20.18,9.66,39.49,5.87,59.45-.87,6.1-6.51,7.87-10.14,2.74-2.95-4.39-3.84-13.13-3.97-18.37h.01Z"/>
    <path class="cls-6" d="M237.66,320.61c1.4,20.47-4.86,40.51-11.71,59.44-9.19-6.08-.3-25.54,1.96-34.27,4.95-17.68,4.3-35.94,1.08-53.8,5.36,9.12,7.6,18.18,8.67,28.63h0Z"/>
    <path class="cls-6" d="M232.89,271.16c3.16,12.11,6.79,29.42,5.2,41.65-1.82-14.77-13.66-29.3-16.91-44.25-1.68-.69-1.74-8.31-1.96-10.09l.66-.76c.43-2.64.61-14.74,4.57-13.46,1.29,9.44,5.8,17.92,8.44,26.91h0Z"/>
    <path class="cls-6" d="M150.92,249.46c2.56.1,3.16,4.42,3.33,6.55,10.76,37.9,23.09,69.45,16.62,109.29l-.36.29c-.23.59.03,1.35-.07,1.88-1.05.2-.78-2.46-.43-3.47.14-3.46.57-6.64.44-10.2-2.99-35.96-21.66-69.06-21.69-105.63.08-.1,1.89,1.05,2.17,1.3h0Z"/>
    <path class="cls-107" d="M191.69,301.96c-.26-7.5,1.81-13.6,4.34-20.62.1-.57.27-1.4.86-.64l4.38,13.67c-2.56,9.51-4.9,18.86-6.11,28.64-.04.85.06.68-.86.65-1.59-7.09-3.4-14.35-2.6-21.69h0Z"/>
    <path class="cls-111" d="M166.97,297.19c-1.69-4,2.74-11.25,3.87-15.87.18-.69-.13-.71.9-.61,3.93,13.06,7.57,30.66.87,42.52-.79-8.73-2.59-17.88-5.64-26.03h0Z"/>
    <path class="cls-6" d="M179.98,295.45c.15.07.89.56.9.71-1.23,5.25-.85,10.67-1.33,16-1.01,6.88-1.66,19.94-5.64,25.37-.72-7.16-.19-13.46,2.4-20.37,1.54-8.23.73-15.69.2-23.88,1.21,1.24,2.02,1.52,3.47,2.17h0Z"/>
    <path class="cls-38" d="M190.82,301.52c-1.73,9.96,2.24,19.22,3.48,28.86-.99,1.43.44,7.47-1.31,6.72-4.09-13.21-4.6-27.06-5.96-40.59,1.37-1.31,2.81-2.05,4.22-3.23-.31,2.74-.27,5.48-.43,8.24Z"/>
    <path class="cls-105" d="M164.36,271.59c.14-.87.34-1.73.44-2.6.41-.51,5.56,8.84,5.61,9.75l-4.32,12.81c-1.1,1.25-2.33-6.39-3.03-7.37-3.06-2.92.07-9.14,1.3-12.58h0Z"/>
    <path class="cls-107" d="M202.53,291.55c-3.13-3.26-3.11-8.8-5.18-12.81,1.3-3.27,3.02-6.93,5.61-9.32,3.16,16.43,3.79,6.49-.43,22.13h0Z"/>
    <path class="cls-38" d="M206.86,277.66c-.85,1.03-1.43-2.22-1.52-2.59-3.52-8.36,3.12-14.78,8.03-20.83l-6.51,23.43h0Z"/>
    <path class="cls-6" d="M163.5,269.85c-.56,1.44-.9,8.44-2.6,7.81l-6-21.62c-.27-.44.36-.89.36-.94,2.81,4.74,8.54,8.78,8.24,14.75Z"/>
    <path class="cls-107" d="M231.59,263.35c-1.55-4.61-7.92-18.21-5.2-22.13,2.96-.43,5.25,19.37,5.2,22.13Z"/>
    <path class="cls-38" d="M148.75,263.35c10.02,57.5,15.93,41.35,3.5,102.2-7.25.34-5.15.67-6.65-5.98-13.55-36.12-7.96-61.25,3.16-96.22h-.01Z"/>
    <path class="cls-6" d="M168.7,349.68c.91,8.21,1.07,21.05-3.9,27.99-2.63,3.34-7.05,3.6-8.9-.65-5.57-12.79,2.59-32.62,4.09-46.24.91-3.63-.95-14.22,1.33-15.8,2.71,11.44,6.94,22.85,7.38,34.71h0Z"/>
    <path class="cls-98" d="M130.1,322.35c.25-10.67,3.52-21.07,8.67-30.37-3.27,18.53-3.72,36.83,1.52,55.1,2.1,8.12,10.71,27.62,1.52,32.97-6.08-18.39-12.91-37.9-11.71-57.7Z"/>
    <path class="cls-6" d="M134.87,270.72c3.76-8.69,6.41-17.98,8.89-26.89,14.57,21.1-10.97,47.72-14.09,68.54-1.73-13.34,3.15-28.72,5.2-41.65Z"/>
    <path class="cls-6" d="M141.38,241.22c2.45,5.91-3.27,16.17-5.2,22.13.46-4.94,1.64-19.57,5.2-22.13Z"/>
  </g>
  <path class="cls-13" d="M170.44,367.47c-.07.35-.47.85-.86.87.2-1.35-.5-3.34.43-4.34-.04,1.04-.3,2.82.43,3.47h0Z"/>
  <path class="cls-6" d="M169.14,352.72c-.77-.55-.41-2.09-.43-3.04.76.54.42,2.1.43,3.04Z"/>
  <g id="OBLIQUES">
    <path class="cls-59" d="M227.25,196.97c-1.18,5.17-8.49,14.48-14.31,14.32-2.99-1.89-1.79-9.22.41-11.09,1.32-1.12,4.88-2.21,6.67-3.31,1.54-.95,3.24-3.19,4.76-2.89s2.75,1.29,2.48,2.97h0Z"/>
    <path class="cls-98" d="M156.56,205.64c.76,1.89-.32,3.95-1.28,5.44-5.78,1.27-14.78-9.75-14.33-15.42,2.84-3.8,4.92.22,7.67,1.65,4.52,1.97,7.52,2.95,7.94,8.32h0Z"/>
    <path class="cls-34" d="M155.19,187.06c.92,2.37,3.13,11.27-1.01,11.25-4.65-.63-12.64-7.18-12.8-11.75,7.99-2.52,6.12-.98,13.81.5Z"/>
    <path class="cls-38" d="M225.08,186.12c.26.08.68.64,1.29.45,1,4.23-13.89,16.94-15.16,9.09-1.31-1.39-.23-8.26.86-9.19.57-.49,3.69-.69,4.34-.36,3.7-.95,4.93-1.12,8.67,0h0Z"/>
    <path class="cls-107" d="M215.54,185.25c-2.18,2.57-7.3-1.59-5.64-4.34-1.38-7.29,4.88-5.99,9.54-4.12,8.25,2.22.37,7.47-3.9,8.46h0Z"/>
    <path class="cls-6" d="M154.3,175.37c5.08-.17,4,3.98,3.02,7.4-1.94,5.63-13.92.24-12.48-4.23,1.25-1.12,7.68-3.05,9.46-3.16h0Z"/>
    <path class="cls-98" d="M235.05,175.71c-.91,4.84-2.62,10.05-5.2,14.32,1.36-8.78,2.27-17.59,2.17-26.46.2-1.77,2.17-4.95,3.03-6.51-.25,6.2,1.11,12.48,0,18.65Z"/>
    <path class="cls-107" d="M137.91,189.16l-.43.87c-6.02-14.24-4.85-18.33-4.77-32.97,5.88,9.38,2.06,21.65,5.2,32.1Z"/>
    <path class="cls-38" d="M137.04,166.16c3.93,2.56,9.17,6.99,13.88,7.81-3.59,3.92-12.1,4.27-13.88-1.52v-6.29Z"/>
    <path class="cls-107" d="M227.68,176.14c-3.52,2.21-6.7-.34-10.23-1.27-.69-.18-.71.13-.61-.9,5.07-1.16,9.6-4.41,13.45-7.81,1.24,3.36.9,7.96-2.6,9.98h0Z"/>
    <path class="cls-6" d="M137.48,175.27l5.44,4.32,2.59,3.93c-6.85,5.17-8.62-2.6-8.03-8.25Z"/>
    <path class="cls-111" d="M225.95,185.25c-7.75-1.31,1.13-7.98,4.33-9.54.23,3.56.17,8.91-4.33,9.54Z"/>
    <path class="cls-107" d="M227.68,192.63c-.4.19-.67.56-1.07.75l-1.5-.96c1.31-2.45,2.24-5.16,4.3-7.16.05,2.59-.88,5-1.73,7.38h0Z"/>
    <path class="cls-107" d="M140.08,192.63c-.5-.73-.61-2.68-1.3-3.47l-.22-3.9,4.07,6.79c-.24,1.5-1.69,1.82-2.55.58Z"/>
    <path class="cls-107" d="M214.67,226.47c4.14-3.13,7.05-4.16,9.89-8.98.27-.45-.07-.77.95-.56,2.52,15.72,3.38,22.79-12.81,30.35-8.27,2.23-2.83-19.39,1.97-20.81h0Z"/>
    <path class="cls-6" d="M155.69,228.64c2.92,3.03,1.91,9.08,4.08,11.88,1.22,16.37-13.63,1.41-17.96-4.07-1.22-6.29-1.36-13.35,1.3-19.09,2.46,5.01,8.87,7.68,12.58,11.28Z"/>
    <path class="cls-105" d="M225.08,211.72c-.32,6.65-6.58,11.12-11.71,13.88-4.33-1.45-2.06-8.13-.89-11.08,4.71-3.54,10.21-5.95,13.25-11.48l-.65,8.68Z"/>
    <path class="cls-38" d="M142.68,209.98c.09-1.15.28-3.1-.43-3.9l-.22-3.04c2.76,5.09,8.81,8.23,13.03,11.26,1.43,1.91,3.27,10.53-.08,11.25-6.32-2.38-12.69-8.31-12.3-15.57h0Z"/>
  </g>
  <path class="cls-67" d="M108.92,179.11c-1.28,4.45,14.63,21.33,10.55,23.92-3.13-3.87.59-5.37,2.83-7.57,1.51-1.48-14.9-14.9-13.38-16.35h0Z"/>
  <path class="cls-2" d="M189.52,56.83c.55-3.25,5.9-3.97,8.22-1.93,3.46,3.47-6.57,2.68-8.22,1.93Z"/>
</svg>