<?xml version="1.0" encoding="UTF-8"?>
<svg id="Layer_1" data-name="Layer 1" xmlns="http://www.w3.org/2000/svg" viewBox="0 0 384.2 572.68">
  <defs>
    <style>
      .cls-1 {
        fill: #323232;
      }

      .cls-2 {
        fill: #d7e848;
      }

      .cls-3 {
        fill: #10100d;
      }

      .cls-4 {
        fill: #0d0d0b;
      }

      .cls-5 {
        fill: #d9e959;
      }

      .cls-6 {
        fill: #11120e;
      }

      .cls-7 {
        fill: #0d0e0b;
      }

      .cls-8 {
        fill: #363736;
      }

      .cls-9 {
        fill: #323230;
      }

      .cls-10 {
        fill: #dcea4a;
      }

      .cls-11 {
        fill: #333232;
      }

      .cls-12 {
        fill: #323231;
      }

      .cls-13 {
        fill: #0f100d;
      }

      .cls-14 {
        fill: #333230;
      }

      .cls-15 {
        fill: #fff;
      }

      .cls-16 {
        fill: #d2e646;
      }

      .cls-17 {
        fill: #343434;
      }

      .cls-18 {
        fill: #060504;
      }

      .cls-19 {
        fill: #12130f;
      }

      .cls-20 {
        fill: #343433;
      }

      .cls-21 {
        fill: #0e0f0c;
      }

      .cls-22 {
        fill: #30302f;
      }

      .cls-23 {
        fill: #080808;
      }

      .cls-24 {
        fill: #cee541;
      }

      .cls-25 {
        fill: #0f0f0c;
      }

      .cls-26 {
        fill: #0c0c0a;
      }

      .cls-27 {
        fill: #161810;
      }

      .cls-28 {
        fill: #0e0e0c;
      }

      .cls-29 {
        fill: #333332;
      }

      .cls-30 {
        fill: #333;
      }

      .cls-31 {
        fill: #343432;
      }

      .cls-32 {
        fill: #cfe544;
      }

      .cls-33 {
        fill: #d6e750;
      }

      .cls-34 {
        fill: #11110e;
      }

      .cls-35 {
        fill: #313130;
      }

      .cls-36 {
        fill: #13150f;
      }
    </style>
  </defs>
  <path class="cls-18" d="M368.82,0l.31.99-3.55,3.73c1.39.62,6.08,3.62,3.64,5.16-.9.57-2.22-.4-2.58-.72,1.2,1.23,1.54,2.89-.56,3.09-.76,1.27-1.68,2.43-2.74,3.49,1.54.61,1.76,2.17.64,4.66,1.69-.55,2.66-.21,2.91,1,3.13.04,3.43,4.23,1.04,5.62-.16,1.04-.58,1.72-1.26,2.03,3.1,2.6,3.06,4.2-.1,4.8,5.04,3.06-4.04,3.38-1.45,6.35-.61,1.1-.17,1.76,1.33,1.99-.07,2.21-.27,4.49-.59,6.83-1.07.69-1.49,1.89-1.24,3.58-3.67,2.81,5.01,5.84,1.65,9.2,1.35,2.76,1.75,6.16-2.02,6.95-.34.37-.64,5.9.74,6.44.94,1.15-2.03,4.12-1.82,3.14.31-1.48,6.4.39,2.29,3.87-3.39-.43-4.25.19-2.57,1.87l-.37,1.96c1.86-2.34,3.65-1.44,2.66,1.41,2.89,1.53,3.08,5.13.48,6.96-.68,1.29-2.89,6.42-1.46,7.3,1.2-.19,4.71,2.81,4.86,3.64.42,2.25-4.61,6.73-4.43.84l-.77.79c2.11,2.85,2.34,4.72,1.79,8.14,2.05,2.69,1.02,3.91-1.93,4.61l-.18.99c2.38-.25,2.55,1.2,1.17,2.74,1.39.67,2.05,2.17,1.98,4.51,4.55-3.44,4.72,2.05.07,3.18l-1.15,1.04c7.44-.38-1.7,5.67,0,9.96,3.14,1,1.67,4.46-1.2,3.38-1.39-2.21-.85.5-.12,1.79-1.03,1.37-1.92,3.14-.9,4.73,3.27-1.84,4.5.46,1.9,3.03,2.27-1.19,3.85.4,1.91,2.31.53,1.6.08,2.5-1.06,3.64.53,2.08-.7,3.26-2.45,1.86l-.86,1.75c3.53-1.04,3.65,3.76,1.15,4.85,1.85,1.43,2.3,6.07.39,7.42,2.96,1.02,4.86,4.66,1.38,6.4,1.27,1.08,1.87,2.54.16,3.44l.08.76c2.79-4.98,10.32-.36,3.68,2.28.25,2.45.14,3.26-2.39,3.99-.82.85-2.09,6.91-1.81,7.33,3.42,1.74-.03,5.18-2.29,2.44-.76,1.84-.66,3.79.32,5.85,1.71.1,2.1,1.46,1.18,4.08.58,1.94.65,3.92-1.86,4.07,3.02,2.99,3.14,4.99.35,6.01l.69,3.1c-1.55,3.35-.96,4.61,2.4,6.32,1.58,1.88-.54,3.73-2.27,1.88.2.82.34,1.63-.09,2.41,2.54.97,3.22,4.7,1.47,6.68.82,2.13-.36,2.96-2.35,3.13-1.54,4.68,1.03,9.64.08,14.55-1.13.13-.77,2.77-.48,3.46,2,1.4,2.04,2.99.25,4.54,1.42,1.47,1.45,3.5.1,6.08l1.35,2.96c3.76.07,3.29,2.53.54,4.18,4.49,2.21.42,3.94-2.4,4.69,2.35,2.3,2.66,4.02.94,5.17,2.96.58,2.37,4.16,1.2,6.12-3.13-.39-2.63-.24,1.5.44-.11,1.39.12,2.65.66,3.78-.01.48-2.38,6.39-3.74,5.79.4,2.95.73,5.85,1.01,8.7,4.76,6.82-.24,4.3-1.3,7.05,2.64.53,2.07,2.59.03,3.44.78,3.4.28,6.75-1.51,10.04l1.25,1.02c-.16,5.03,1.89,10.99.22,15.82,1.58,2.23,1.83,4.36.77,6.38,2.67,1.68,3.14,2.91.78,5.14-1.56,1.95-1.62,10.11-.14,11.69,3.58.81,2.06,5.22-1.29,3.24l-.35.47c2.18,1.49,3.19,3.83,3.05,7.01,1.95,1.65,2.69,4.22-.48,4.73.72,1.74,1.84,6.04.69,7.36-2.05.55-2.6,1.17-1.65,1.88,1.22,2.59,1.88,7.83-2.09,7.41,1.32,2.74.65,6.29.47,9.23,1.04.22,1.96.71,2.75,1.45,3.64-.51,5.41,5.18.09,3.77-1.83,1.67-1.77,3.92,1.07,3.53,3.69,3.39-1.44,3.05-3.12,5.11,1.76.25,2.35,1.38,1.56,2.99,1.92,2.24.06,4.69-2.24,5.74,4.09-.12,4.26,2.82.48,4.06l-.57,1.09c1.26.97.85,2.04-.04,3.12,1.03,2.5,1.38,4.6,1.12,7.27,1.83,2.05,1.97,3.31.41,3.77.76.94.78,2.11.05,3.52.71-1.35,3.8.09,4.25.88,1.02,3.75.66,10.32-4.82,6.06.35,1.43,2.87,4.97.72,6.05,1.06,1.42,1.15,2.36-.44,3.34,1.32,2.79,2.01,8.56-.92,10.28,1.99.7,2.99,2.15.54,3.11v3.44c2.92,2.81,3.21,4.67.88,5.58.49,2.44.43,4.76-.17,6.95,2.74.71,3.83,1.41.9,3.32,1.01,2.1.35,3.18-1.7,4.24.43,1.72.43,3.5.19,5.25,2.69,1.43,1.88,2.47-.19,3.51,1.81,2.54,2.14,4.62.98,6.25,1.13,1.24,1.46,2.49.98,3.73.95,1.66,1.05,2.6-.4,3.95l.38,1.8c-.53,1.25-.4,2.53.39,3.86-2.94,1.86-2.33,7.99-5.19,7.58-.75,2.86-2.37,1.47-3.48-.35-.91.36-1.77.48-2.61-.13-1.88,1.55-4.49,1.68-5.04-1.1-1.97.15-4.06.13-5.74-.98-1.03.56-1.81.95-2.68-.14-.51,2.02-1.94,3.08-3.82,1.91.45,1.14-.03,2.02-1.42,2.64.92,5.08-7.21,3.93-3.14-.5.41-.93-.06-1.7-1.41-2.31.41-1.33-.37-1.1-2.34.68.44,2.08-.07,3.78-2.45,3.07.06,3.18-3.2,2.53-3.6-.35-.1-.72,1.5-3.42,2.04-4.11,1.55-1,.9-.86-1.97.42.06,2.14-.96,3.88-2.98,2.13-2.3,1.62-3.25.51-3.75-2.02-.13-.15-3.36-1.56-3.7-.96-.11,2.11-2.01,4.13-3.86,2.4-1.78,1.33-4.03.67-3.1-1.69-.91.93-1.96.77-3.15-.49-2.14,1.27-3.74,1.33-5.54-.4-1.39.4-2.73.99-4.03,1.76-1.26-.78-2.55-1.24-3.89-1.35.15,3.22-2.65,2.48-4.76,1.67-1.38,2.37-2.95,2.22-5.16,1.17-1.86.45-2.93-.69-3.22-3.4l-2.51.95c-.96,2.31-3.8,2.37-3.69-.34-1.31-.34-2.34-.01-3.1.99,2.31,4.59-1.1,7.16-3.32,1.92-1.85.15-3.32-.34-4.41-1.47-1.33,3.3-3.46,2.96-3.63-.78l-.51-.15c-.86,3.65-8.86,4.14-3.73-.42l-.48-.97c1.42-2.75.14-5.7-2.08-7.67-23.2-14.65-6.99-57.7-3.12-80.44,2.02-11.13,2.73-22.73.14-33.74-4.78-14.92-4.48-30.87-2.87-46.36,15.04-39.54,6.85-82.58-.6-122.88-2.78-8.24-4.49-15.27-3.15-24.08-4.68-15.57-.02-32.33,6.71-46.47.55-.46.91-.77,1.82-.51,8.64,20.1,7.17,42.44,17.93,61.63l12.45,21.88c4.32,7.95,6.96,14.43,5.37,23.55,1.7,6.15,5.08,35.27,13.46,32.8,1.89,4.87,4.59,6.59,8.1,5.16,3.69,2.8,6.9,2.23,7.38-2.88,11.05-.62,1.44-15.57,2.76-22.14-1.83-.43-1.43-3.82.81-2.57,3.96,4.85,12.54,3.5,6.53-3.53-3.47-9.75-10.14-17.44-18.92-23.02-10.56-23.9-5.68-51.78-19.59-74.27-5.93-13.99-3.5-30.11-10.63-43.73,3.25-21-3.34-46.77-28.58-48.49-10.43-4.4-20.38-9.55-29.86-15.45-3.26-2.87-2.51-20.69-.39-23.85,6.57-.83,10.98-19.17,2.94-20.63.51-5.62.54-11.57-1.39-16.99l-.62-.14c-12.55-27.72-54.14-14.35-47.76,18.09-8.9.37-2.85,15.09.48,18.98l-.06.64c.7-.83,2.66-.18,3,.84,1.97,5.89,3.7,20.5-2.5,24.43-9.14,4.96-18.59,9.8-28.28,13.84-11.84,1.85-20.75,7-25.56,18.29-4.37,10.26-3.85,18.92-2.91,29.51-2.57,6.58-4.49,13.35-5.75,20.31-.01,14.15-5.07,25.45-11.31,37.73-5.78,19.96-5.37,41.33-12.96,60.72-10.12,5.92-17.33,16.75-21.37,27.28-.23,4.11,7.54,2.18,8.81-.51,7-2.16-10.13,24.92,3.34,24.64.39,4.49,4.15,6.24,7.26,2.93,4.38,1.64,6.45-.7,7.65-4.73,10.02,1.67,14.99-35.05,13.67-42.32,5.17-19.51,21.57-35.62,25.84-55.71l.79-.6c1.19-10.66,1.43-21.45,6.55-31.15l2.33-8.86c1.67-4.49,3.6,1.33,4.2,3.66,4.5,9.95,7.76,18.42,6.86,29.52-1.88,8.04-2.02,15.54-1.33,23.67-3.19,9.31-4.76,19.28-6.1,29.31-8.81,35.7-9.75,73.77,2.43,108.35.66,10.31.56,21.71-.54,31.9-13.08,36.76,9,73.74,5.99,110.88-2.5,6.56-6.73,11.6-12.36,15.97l-1.24.03c-3.18,2.3-3.65,7.92.28,9.8.86,2.56-1.38,2.53-3.21,1.83-1.05,2.94-6.78,5.03-4.71-.25,1.96-1.6,1.44-2.98-1.58-4.16,4.87,1.27.91,6-1.9,2.98-1.1.39-2.16.18-2.59-.97-1.85.85-3.51,1.84-5,2.97.36,4.92-2.78,3.55-5.17,1.03.19-1.52-1.2-1.21-2.17-.68-.41,6.02-5.2,1.67-2.61-2.18-.57-5.18-3.36-1.29-2.67,1.82-1.6,2.41-4.04-.31-4.44-2.34l-2.53-.12c-6.53,3.99-.49-4.64-7.69-2.19.81,5.23-4.47,5.25-4,.73l-.73.74c-.82,3.27-1.74,6.21-5.31,3.15-3.06.53-3.75-1.67-1.84-3.77-1.33-1.31-2.24-.9-2.73,1.22-1.76-.06-2.2.22-1.32.85-2.79,2.65-5.92,3.1-7.81-.48-1.46,1.88-5.17,1.84-6.61,0-3.77.76-6.06,4.19-5.98-2.32-1.88,1.09-4.03,1.12-6.45.08l-1.2.65c-.86,2.75-2.89,3.15-3.64.13-.97,1.27-2.2,1.2-2.74-.31l-.81.4c-1.3-.69-5.49-2.6-4.64.1,2.88,4.04.03,6.08-3.13,2.26-1.09-.03-2.14-.18-3.16-.43-.47-2.21-2.74-2.36-4.51-1.6-.24,1.53-1.98,1.68-2.37.15-1.54-.08-2.99-.68-4.35-1.8l1.09,2.77c3.27,1.73.36,5.54-1.41,2.28-1.52-.29-2.94-1.25-3.58-2.67-2.39,1.06-5.1-.78-6.76-2.46-.8.39-3,4.37-3.96,2.29V0h368.82-.07Z"/>
  <path class="cls-15" d="M383.75,0h.45v572.68H0v-1.36c5.76,2.67,14.57.45,21.06.93,14.6-.49,30.93.66,45.24-.77,10.33,1.55,22.45.06,33.26.75,2.1-.89,4.24-.89,6.34,0,12.62.6,26.52-.13,38.67.03,33.24-1.15,68.98,2.01,100.94-.93,22.12,2.41,46.19.26,68.96.82l.28-.82c2.23,2.6,15.53.37,19.94.93,16.48.02,32.72,0,49.07-.01V0h-.01Z"/>
  <path class="cls-2" d="M280.12,276.15c3.2,2.97,5.65,10.74,4.51,15.23.41,9.94,3.88,28.77,9.85,36.35,2.56-2.22,3.71-1.48,4.22,1.73,1.27,3.24,3.09,5.65,5.58,1.82,4.37,4.4,5.82,3.69,5.88-2.49l.46-.57c9.76,4.47,1.59-11.82,2.06-16.14l.91-.61c-.3-1.91,0-2.66.91-2.26.72,5.95,8.63,23.25-2.26,22.63.58,5.01-4.91,6.2-7.98,3.26-4.41,1.56-6.88-1.47-8.29-5.33-7.83,3.68-13.19-28.61-14.07-33.45-.22-3.22.95-7.68.38-10.34-5.95-17.75-19.33-32.47-24.67-50.47-2.01-6.93-2.58-12.31-3.28-19.35-1.4-9.49-6.14-17.05-7.7-26.47-8.03,13.43-11.77,30.51-7.23,45.94-.59,7.8-.84,14.56,2.58,21.86,7.4,39.08,15.55,81.49,3.17,120.63-4.77,9.68-2.26,20.85-3.06,31.34-.38,6.56,3.89,18.14,4.94,25.4,2.82,19.48-3.71,37.66-7.15,56.6-1.15,6.3-2.71,14.08-3.18,20.36-.52,5.62,1.85,10.41.39,15.81,0,1.34,4.69,9.17,5.9,10.42,3.76,3.67,11.56,7.99,7.7,14.25-5.31,3.69-12.71,2.5-18.8,3.6-5.58,1.56-8.02-1.88-11.97-4.96-1.3.09-1.76-.83-.91-1.81-.39-5.71-7.37-3.1-5.43-13.13l-.5-1.12c1.04-4.21,1.06-8.65.05-13.33,2.36-7.63,2.8-13.61,2.06-21.93-1.33-14.9-4.7-29.5-8.78-43.83-3.13-12.28,2.29-24.62,2.14-36.9-4.81-18.12-6.73-37.36-8.33-56.19-4.23-16.17-6.93-31.81-7.74-48.64-.39-8.15-1.55,1.56-1.04,4.08-1.64,15.87-4.33,31.48-8.07,46.85.03,26.29-12.14,51.25-5.26,77.13.47,24.11-13.24,48.05-9.23,72.52,2.39,5.84,1.92,12.87.36,18.64.24,1.41.09,2.47-.45,3.17-2.47-.39-2.39-5.73-2.31-7.97,1.64-5.57.68-9.23-1.38-14.49-.47-14.7,1.18-30.92,5.95-45,5.69-24.93,4.09-28.02.57-49.38-.2-1.45.21-2.49,1.24-3.13-.57-2.36-.19-5.76,1.81-7.24,2.26-13.7,5.03-27.68,4.57-41.65,2.72-16.07,8.64-31.66,8.58-48.2l.66-.36-.09-8.02,1.2-1.82c-.31-3.01,6.38-1.85,4.98.91,1.45.81,1.3,1.22.67,2.64.19,17.49,5.21,35.09,8.72,52.14.12,14.76,3.59,29.42,5.09,43.91,1.77,1.54,2.55,4.56,1.81,6.79,1.19,1.11,1.65,2.69,1.37,4.72-3.37,16.51-5.19,32.63.94,48.53,1.81,8.69,3.49,18.05,4.96,27.13,2.37,12.24-1.99,23.87-.75,36.06-1.79,5.37-3.17,9.74,3.05,12.53.6,5.93,7.54,11.61,13.24,7.93,2.06,1.3,13.33-.63,14.63-1.61,1.76-1.33.07-5.11-1.56-6.12-5.54-4.44-10.64-10.13-12.35-17.14l.91-.66c.88-2.33.77-4.18-.33-5.54-3.53-22.72,8.37-45.27,9.94-67.95,1.61-14.13-1.56-26.59-5.1-40.13.14-8.08.14-16.21,0-24.39.61-.4.91-1.33.91-2.79-1.26-.63-.57-4.17.91-4.07,13.59-42.2,5.9-85.85-2.72-128.12-3.6-3.48-2.5-14.6-2.59-19.66l.78-1.17-1.38-4.01-.41-15.48c2.94-10.08,6.34-19.87,10.19-29.35.6-.45,1.26-.43,1.82.08,5.59,16.2,9.15,31.8,11.99,48.49,3.3,15.94,15.92,28.19,20.78,43.28h.03Z"/>
  <path class="cls-16" d="M126.26,228.62c-.97-10.25,1.96-20.82,6.05-30.26.98-2.01,2.77-18.48,6.77-12.81,5.11,15.7,14.48,30.79,8.35,47.67-1.7,5.89,2.27,13.66-1.71,18.49-8.86,41.85-16.92,85.48-4.53,127.66,1.59,1.13,2.96,4.09,1.81,5.89,0,1.83.31,3.55.94,5.17-1.35,6.98-.81,13.88.44,20.58l-4.13,17.69c-3.55,10.81-.52,20.67-.87,31.25,4.99,13.53,5.96,28.61,9.03,42.76,1.2,6.95,2.25,13.88,0,20.43,4.49,13.1-13.77,19.13-13.63,27.05l-.82.75c1.01,1.11-.3,1.71-1.09.55-.05-2.33-.86-5.67,1.09-7.35,4.71-3.54,10.96-10.46,12.71-16.07,3.52-30.8-13.12-61.44-9.96-92.32,4.08-16.62,6.25-33.33,4.5-50.3-8.26-22.9-10.75-52.26-8.12-76.46,2.71-17.89,6.31-35.4,9.24-53.23,3.35-6.77,2.81-11.98,2.03-19.25,4.2-20.13,1.28-27.26-6.3-45.75-.2-.68.19-.76-.93-.65-1,7.12-5.12,15.16-7.14,21.61-.59,6.1-.27,13.39-2.82,19.14-.66-.2-.96-.95-.91-2.26v.02Z"/>
  <path class="cls-32" d="M215.41,36.67c.29.02.58-.08.86.03,1.64,5.72,1.8,11.02,1.37,16.91,4.73.85,4.46,4.55,4.11,8.64-.67,3.68-2.58,12.79-7.27,12.65-2.45,6.05-1.16,14.14-1.14,20.65,2.81,4.48,8.2,5.96,12.63,8.19,4.91,2.47,10.94,6.26,15.82,8.17,22.41,1.85,34.63,21.17,32.45,42.71-1.45,4.63-.81,9.01,1.7,13.22,5.18,17.7,2.79,31.61,13.31,47.8,7.62,20.62,5.38,43.53,14.38,63.93,10.69,6.18,16.02,16.25,21.21,26.78.27,6.39-7.91,3.82-10.56.59-.53.48.08,1.64.23,2.26-.56.43-.87,1.57-.91,2.26-.37-.01-.92-.04-1-.3-.04-1.79-5.03-14.1-.42-11.58l4.51,5.76c2.31,3.33,8.32,3.95,3.71-1.3-6.76-20.13-21.74-18.16-20.83-31.06-4.74-9.27-5.41-20.27-7.04-30.47-.42-15.29-6.02-27.99-12.74-41.31-2.92-11.47-1.31-24.54-7.28-35.07l.36-.44c-1.51-.87-2.99-5.12-1.36-6.34,3.05-18.21-4.31-40.99-24.89-44.37-.77,1.27-4.83.95-4.53-.91-9.1-2.63-17.41-9.21-26.28-13.02-1.8-.84-2.84-1.93-3.13-3.28-1.75.09-2.54-3.47-1.36-4.53-1.24-5.89-1.65-13.48,1.36-19.01-1.59-1.15-.77-1.84,2.46-2.09,2.67-1.4,5.42-12.77,3.93-15.45-3.45,1.01-4.83.14-4.15-2.6.64-5.48.5-10.95-.42-16.41l.9-1.02h0Z"/>
  <path class="cls-24" d="M167.89,72.89c3.78-2.2,5.46,1.05,4.07,5.43,1.21.6,1.67,2.4.91,3.4l.45.21v5.88c.85.52.52,1.31-.45,1.61l.48.42c-.68,1.42-.99,3.16-.93,5.24,1.08.92,0,3.09-1.36,2.72l-.06,1c-9.63,6.61-21.27,12.05-31.92,16.83-21.65.53-29.64,23.99-26.85,42.38,1.14,1.99,1.06,4.33-.22,7.03-6.25,12.56-4.29,27.37-9.27,40.26-11.81,17.58-9.94,39.47-15.31,59.22l-1,.33c-.7-.25-1-1.15-.91-2.72,3.58-14.92,2.95-32,8.83-45.72,2.61-6.08,6.5-12.11,8.14-18.56,1.85-7.27,1.34-15.3,3.06-22.74,1.2-5.21,5.2-11.54,4.86-16.43-.51-7.41-1.49-11.04.21-18.79,4.95-27.04,24.42-23.01,43.52-34.33,18.92-7.75,19.07-10.31,15.48-30.1-.36-.72-1.34-.81-2.19-1.2-.98-.81-.87-1.39.45-1.36h0Z"/>
  <path class="cls-10" d="M127.16,230.88c-2.97,20.75-21.44,36.97-25.83,57.28,2.23,13.11-4.56,27.23-8.36,39.58-1.55,2.24-2.91,2.55-5.6,2.32-.34,4.13-4.37,6.35-7.9,5.02-2.68,3.39-8.61,1.37-7.97-3.25-11.78-.23-1.6-18.22-1.81-24.9-2.6,2-5.89,5.18-9.29,2.73s-.29-4.59.78-6.94c4.02-10.24,9.93-17.32,19.32-23.23,1.81-5.74,3.62-11.53,5.03-17.38.69.58.91,1.83.91,2.72l.85.58c-1.23,5.35-2.73,10.72-4.92,15.79-10.3,6.14-16.64,15.91-20.85,25.94.42,3.82,8.83-3.86,8.71-5.97,7.61-8.99-.96,16.67-.68,17.98-.45,1.43-2.51,11.58,1.09,10.08,2.23-2.28,3.37-1.15,3.41,3.41.7,2.52,3.94,1.69,4.11-.83l1.09-.43c2.91,3.24,5.1,1.85,6.55-4.16.68-1.35,1.83-1.26,3.45.28,2.12.9,5.91-13.27,6.37-15.02,2.26-8.62,4.29-17.07,3.2-25.91,4.07-11.72,9.68-22.86,16.85-33.41,5.11-7.52,6.65-16.77,10.59-24.55.56.43.86,1.57.91,2.26h0Z"/>
  <path class="cls-33" d="M215.41,36.67c-.08,1.2-.9,1.09-1.86.56-5.88-15.45-28.55-18.17-39.37-6.32-6.51,7.14-5.89,16.57-5.2,25.52-.79,1.24-2.03,1.3-3.71.16-2.84.93,1.05,13.35,2.78,15.17-.03.64-.38,1.9-.62,2.49-4.48-2.07-9.91-22.01-.91-19.92-7.38-36.21,40.63-44.49,48.88-17.66h0Z"/>
  <path class="cls-18" d="M169.25,533.29c-.8-6.81,1.79-12.3-1.25-18.44-3.11-19.95,5.85-44.87,9.41-64.62.54-15.12-6.52-29.03-.14-43.6,2.68-12.03,3.72-24.31,4.66-36.53,2.85-20.4,9.03-39.29,9.07-59.96,4.24-1.24,1.77,10.35,2.67,12.88.74,15.76,6.32,29.68,8.14,45.27,1.04,12.76,1.94,25.67,4.75,38.25,1.29,5.75,3.47,10.37,2.91,16.47-.77,8.42-3.62,17.3-3.14,25.85,4.11,23.91,14.52,50.2,7.74,74.2.48,4.87,1.83,7.87-.49,12.94-.94,2.06-.85.54-1.02,3.33-1.07,1.79-.1,4.05.1,5.91-.04,1.35-1.45,3.17,0,4.12l-3.46,2-1.29-.8c-1.39,3.38-6.68-3.26-5.22,1.99-.02.75-1.49,2.01-.88,3.37l-1.8-.47.68-3.62c-.73-1.12-1.57-.92-2.53-1.15-1.37-1.22-2.86-.11-2.69,1.62-.37.6-3.47-2.05-4.73-1.8-1.39.28.5,2.54-.93,3.15-1.09-1.3-3.29-2.46-4.9-1.93-1.61-1.41-3.59-.74-5.28.13-.44.34,1.66,1.98.22,2.26-.66.13-1.1-1-1.73-.87l-2.33,1.32c-.79-1.07.66-1.2,1.27-1.36.55-.14.36-1.31.31-1.35-.31-.31-2.07.65-2.71.45-.19-2.96-2.57-2.46-4.38-.95l-1.73-.86c-1.59,1.07.87,2.47.67,4.08-1.87-.55-2.22.62-3.19,1.15-.57.31-2.23-.33-2.92,1.12-.64-.3.22-1.13.22-1.6,0-.8-1.67-1.64-.45-2.93-.97-.57,2.28-6.51,2.52-7.11,5.98-2.34,3.67-7.34,3.81-11.9h.03Z"/>
  <path class="cls-5" d="M169.25,533.29c.35,1.47-.17,3.4,1.37,3.9.83,3.62-2.09,7.76-5.02,9.07-.74,1.21-1.07,4.86-2.69,6.04-3.1.66-4.22,4.07-7.97,4.06-1.91.13-3.2-1.03-4.57-1.28-5.71.47-21.28.99-17.78-8.67,1.29,1.42.97,3.27.45,4.98.5.18.84-.44.9-.45.14-.37.44-.75.74-.64,4.66,1.52,9.98,3.7,14.95,2.11,6.37,3.36,12.95-1.05,13.65-7.87,3.78-2.01,5.11-3.07,4.57-7.62l.93-.47c.08-1.1.55-2.06.45-3.17h.02Z"/>
  <path class="cls-18" d="M219.93,550.95c-.15,1.66.43,1.28,1.38,2.08.43,2.51-1.92,1.88-3.64,2.45-.24-.82-.14-2.14-1.36-1.81.23,1.31.52,2.22-.68,3.17-.31.14-1.06-2.35-1.25-2.6-.24-.31-1.1-.4-1.23-.8-.38-1.24.41-1.19,1.36-1.14l-.9-3.16c2.41,1.16,2.43-.54,4.3-1.36.74,1.31,1.69,1.75,2.04,3.17h-.02Z"/>
  <path class="cls-18" d="M378.32,153.47l-2.06,1.8.63,2.86-1.96,3.94c-1.92-2.05-.26-3.71-.23-5.88-1.58.51-2.89.9-2.71-1.36l2.45.42c.86-.45.72-1.37.72-2.23l3.16.45h0Z"/>
  <path class="cls-18" d="M99.56,572.23c-.17-1.43,1.74-.79,1.81-3.62,2.13.48,3.84.21,5.21,2.25.68,1.04-.22.84-.69,1.37h-6.34.01Z"/>
  <path class="cls-18" d="M144.36,556.84c-.16,1.45-.14,2.58-.89,3.82-.04,1.22,1.47,2.29-.7,2.96-1.51-1.16.9-2.37-1.14-3-.83-4.15-2.3-4.17,2.72-3.78h0Z"/>
  <path class="cls-23" d="M167.89,72.89c-2.49-1.63-8.48-20.62-.62-16.35,1.62.27.63-1.74.61-2.43-6.05-30.79,33.22-44.02,46.21-17.47.43.12.88,0,1.32.03.81,6.82.94,13.11.45,19.92,6.58-4.03,4.43,5.87,3.4,9.51-.81,2.8-2.46,8.42-6.14,6.98-.87,1.8-1.43,5.95-2.86,1.84l-1.19-.68c-.76.14-1.4-.18-1.91-.97l1.27,5.1-.72.85c.5,1.17-.08,1.38-.91.45l-1.02-.33c0-.65-2.8-8.74-3.04-8.37-1.18,1.78,2.52,19.04,5.73,20.99-.22-.82-.24-1.4.59-1.88,1.04-1.63,1.8-.57,2.26,3.17.39,1.38.57,3.46,1.36,4.53.95,1.53.8,1.98-.45,1.36-3.19-.26-6.25-4.83-7.93-7.61-4.07-6.73-4.7-13.21-4.17-20.65.5-4.26-4.86-3.48-5.7.4-2.35,10.89,1.46,24.27,5.28,34.45.94,3.5.98,7.2-.02,10.66-8.6,14.33-4.09,62.32-5.1,78.46,9.05-20.38,21.48-39.62,28.2-60.73,2.19-10.57,11.92-11.67,17.95-18.69-1.04-1.81-.46-1.91,1.36-1.36,1.95.93,2.71.62,4.53.91,3.53.48,1.73,2.58-.47,2.31-1.96,6.25-17.35,10-11.5,12.3,8.34,13.3,23.52,18.3,34.99,28.12.34-.55.68-.8,1.41-.62.66-.29.81.47.45,2.26.15,1.93.7,4.5,1.36,6.34.83,2.21-1.29.03-2.2-.02-2.19-3.73-5.38-6.86-9.25-8.79,2.01,6.57,3.68,13.23,5.02,19.97,5.95,7.96,8.69,17.04,8.67,27.18l.93-.32c.43-1.86,3.79-4.14,3.17-1.36,1.2,15.69,9.32,18.69,10.86,30.78,2.49-.06,1.88,5.75,0,3.17l-1.28-1.01c-1.19-3.49-2.57-7.02-4.49-10.13,4.54,17.2.72,39.71,7.13,54.85l-2.18-12.17c.32-1.08,1.6-1.31,2.14-.3.62,1.31,1.68,11.92,3.35,11.73-.27-2.36-7.38-23.68-2.34-21.58,1.53,5.32,3.44,10.55,5.74,15.69l.52-.41c-.08-4.44,3.28,8.17,3.85,8.14.67.9,4.54,3.04,5.87,4.09,7.03,5.52,9.09,10.73,12.81,18.42.76,1.58,3.83,4.27.22,5.04-4.77,1.01-7.4-6.82-10.54-8.97l2.71,11.77c-.6,3.66,7.82,23.71-2.71,17.2.83,6.19-2.88,9.18-6.57,3.17-1.84,6-7.31-.94-7.01-4.53-1.06-.26-2.08,1.4-2.86,1.3-2.52-.34-3.93-5.93-4.61-8.08-2.79-9.68-7.49-21.45-5.64-31.46,1.4-1.37-6.6-16.82-3.18-13.36.97-.71,1.53,1.32,1.5,1.21-7.55-17.14-7.46-39.64-21.96-52.59l.1-1.14c-1.83-1.85.62-5.16,2.72-4.98l-.71-.89c2.33-6.46-2.76-10.1-6.85-13.52l.32-.99c-.98-.85-.19-1.56.91-.91,1.14-.05,2.25.57,3.34,1.83-2.59-7.86-2.35-16.38,2.1-23.53,1.78-6.57-7.88-43.73-12.13-18.24l-1,.56c-1.02,2.06-1.41.29-.91-1.36l-.79-1.02c.84-1.05-.13-14.2-1.55-13.33-4.74,7.84-10.81,14.29-18.17,20.11,5.28,1.45,11.62.59,16.53-1.97l1.26.27c1.16-.51,1.37.09.45.91-1.62,2.67-6.44,4.1-9.57,4.84-8.37,2.33-15.92-1.55-23.83-2.97-4.64,7.73-9.1,15.94-12.72,24.36-2.89,6.73-2.1,8.56,1.19,14.92,3.5,6.77,7.31,12.52,13.14,17.49,4.61,4.82,3.85,10.23,6.67,15.73.33-2.9,11.71-27.84,14.34-24.42l.32,12.98,1.4,4.06c.97,7.91-1.01,13.01,1.81,20.82.74,2.71-.2,1.87-1.52,1.45-3.87-14.95-31.94-3.53-24.31-.52,29.06,7.71,28.91,41.44,33.99,65.83-.33.92,1,7.62-.92,4.32l-1.09-.81c-.96-4.61-1.97-9.23-3.4-13.72-.87.61-3.63,17.58-3.19,20.94,4.84,15.62,4.75,33.32,2.7,49.27,1.63-.55-.56,4.36-.45,5.43-.08,6.5-3.36,2.34-3.17-1.23.15-20.08,8.33-56.86-16.28-64.88,9.35,25.5,3.04,55.89,15.25,80.58l.13,2.29c.96,2.67-2.91.27-3.34-1.63-4.01,4.78-5.19,11.35-5.18,17.57,2.03,11.18-2.81,40.35,7.31,45.49l.3,1.04c3.48.31,2.67,2.21-.45,1.81-3.99,1.77-7.29-4.68-8.38-7.85-1.89,5.51-4.89,11.46-10.39,13.99,3.01,18.7,8.73,37.18,6.51,56.27-.09,1.78,1.13,2.85,2.18,1.75.62-6.37,1.19-12.8,1.69-19.3,1.22-1.4,1.47-5.81,2.51-1.39,1.42-.12.16,5.2-.45,5.89-.96,3.13,3.47,1.91,3.56,4.77,5.67-2.56,2.04,5.16,3.02,7.89.71,1.73,4.22,7.51,5.45,9.04,4.95,4.55,16.15,13.38,2.73,14.56-3.16.59-7.2,2-10,.57-4.34,3.27-10.71-.68-13.13-4.68-.69-6.48-2.68-2.59-5.22-7.46-1.53-4.63,1.43-7.63,1.42-11.79s-1.72-6.32-.37-11.2c4.44-16.06-1.59-29.78-2.83-45.62-.85-3.61-.7-4.67.45-3.17,16.93-5.62,12.23-53.45,4.98-66.55-.84,1.51-1.94,1.74-1.36,0,8.12-24.37,8.9-50.72,1.87-75.8-.16-.66-2.53-8.91-3.6-7.28-9.41,24.1,3.91,49.74.37,74.54-.67,4.16-1.41,16.15-4.08,18.49-.45,1.27.61,5.54-1.36,2.72.02-1.12-3.7-9.97-.45-7.24v.45c.65-.28.58,1.17.59,1.1.07-2.03.14-4.1.09-6.14.79.17,1.15.95,1.06,2.33l.53-.46-.16-4.84c4.05-16.89-1.21-33.69-2.68-50.57-.1,2.68-2.52,13.58-3.77,5.59.99-12.4,3.23-25.04,6.15-36.8-4.76-1-9.23-2.54-13.42-4.65-.03,4.18-3.98,10.59-3.6.92.27-2.57.2-4.55-1.53-6.28-6.63-3.13-4.99,7.02-5.27,11.03-.95.41-1.85.29-1.96-.86-1.07-1.09-1.61-2.71-1.62-4.86-4.25,2.18-8.37,3.76-13.09,4.62,2.08,12.63,7.08,25.64,5.21,38.27.68,3.57.48,9.32-1.92,3.34l-.96-9.39c-2.45,12.68-5.66,34.16-3.04,48.02-.23-1.81,3.2-28.37,5.93-22.06l.42,1.91c-2.53,9.2-3.72,19.08-3.59,28.42,2.94-3.57-.79,7.65-.91,9.05-.39.54-.7.09-.91-1.36-1.06-1.73-1.63-3.84-1.71-6.3-2.46-10.45-4.44-20.79-2.89-31.64l3.56-25.1c1.69-3.29-.22-35.94-4.22-31.44-9.14,24.89-10.58,54.57-.47,79.57-.37.87.68,5.84-1.06,3.14-5.86,5.4-5.74,22.45-6.43,30.43-.35,12.01-.34,28.13,9.93,36.11.36-1.69,1.01-2.59,1.93-2.7,1.62-.98-.75,7.69-.49,8.79-2.49,14.02-7.64,32.07-1.79,45.35-.07,4.47-2.35,10.05.47,15.13.36,4.88-.53,6.65-4.76,8.59-.64,1.03-.4,3.8-1.82,5.42-4.04,3.64-7.47,5.35-12.56,2.84-4.62,1.44-11.43-.33-15.7-2.37-1.46-7.45,10.45-10.16,14.49-22.44.16-1.57-.99-3.71-.94-5.39,3.93-20.88-5.61-42.38-8.12-63.17,0-2.47,1.07-1.35,2.38-1.13,4.71,12.35,12.2,2.54,12.82-6.4-.27-16.58,5.48-36.51-4.07-51.22-.55,1.91-1.55,3.08-2.99,3.52-2.36,2.82-.51-2.08-.74-3.18,4.95-9.77,7.29-20.56,8.37-31.39,1.34-15.58,1.94-35.41,7.53-50.04-21.93,4.48-18.1,42.77-16.85,59.78l-.57.83c.22,1.58.55,9.66.06,10.08-2.13,1.83-2.33-3.56-2.1-4.83.04-1.03-3.78-9.53-1.13-7.07.64-.5.65.71.63.65-2.66-11.71-1.63-25.05-.05-37.13,4.3-10.9,2.5-21.02-.55-32.09l-2.59,10.01-1.07.61c-.95,2-1.3.12-.91-1.36,2.16-25.45,5.8-57.69,34.84-65.75-5.85-7.93-20.26-8.38-26.24-.34-.7.49-.85-.11-.45-1.81,1.87-6.2-.06-10.3.45-16.08,6.38-18.84-2.41-33.33-8.14-50.47-3.37,1.16-3.19,10.07-4.85,13.48-4.87,9.85-5.35,19.5-6.91,29.98-3.59,20.8-20.04,37.13-26.27,56.8-.74,2.61-.04,2.91.03,4.99.9,4.03-6.27,46.03-12.91,36.46-.9,0-1.69,9-6.46,6.92-.9-.39-.69-1.74-1.91-1.5-.07,2.08-1.37,2.89-3.37,2.7-2.73-.26-2.54-4.16-2.52-6.32-11.86,8.67.47-24.6,0-28.97-3.11,2.4-3.97,7.13-7.82,8.7-1.63.67-3.96.77-4.4-1.22,2.7-5.3,5.46-11.54,8.85-16.51,12.55-12.43,12.46-5.16,16.95-25.83,4.63-15.05,3.68-32.91,9.28-47.53,9.29-14.17,9.21-28.52,12.32-44.27,1.42-4.92,4.71-10,4.2-15.04-.31-1.51-.15-2.12.45-1.81,1.04-.59,1.27.23,1.29,1.22,10.66-8.98,25.01-12.76,32.81-25.11,3.77-2.56,4.61-4.45,2.54-5.67-4.42-2.07-8.13-4.8-11.14-8.19-.21-1.96,4.49-4.69,4.82-2.08,7.75,5.18,15.68,8.6,18.25,18.51,6.5,20.75,19.12,39.54,27.77,59.62-.23-23.07,3.09-47.03-1.77-69.61-3.27-6.98-5.05-11.39-3.12-19.1,3.24-5.02,11.84-42.52-.32-37.08.39,10.66-1.22,25.82-12.31,30.46-2.65,1.49.67-2.98.9-4.07-.89-6.18,3.24-6.73,2.7-2.59,6.06-5.08,8.25-34.91,2.93-12.13l-1.1.69c-.8,1.71-1.34.57-.91-.91l-.79-.6,1.58-6.65c-.84,1.76-1.86,2.97-3.06,3.63-.88,7.3-2.62-1.5-2.72-3.62-.17-.2-1.92,1.02-3.17,0l.04.04Z"/>
  <path class="cls-26" d="M235.32,526.96c.3-4.38,1.5-6.46-3.62-4.53-.05-1.31-.25-2.39-1.66-2.65l-1.51.84c-.48-.83,3.42-13.29.9-9.96l-1.36-1.36-.09,1.51-.37.3c-.06-14.33,4.84-28.77,9.11-42.5-.93-.15-1.57-.32-1.42-1.42l1.81-.68v-.67l-1.35-.45c.88-.6,2.01-1.06,3.39-1.39,10.99-17.57,1.29-40.5-3.71-58.73l.32-1.45.91-.91c.82-.16,1.39.25,1.71,1.24.16-1.78-1.56-14.5.1-15.73l1.81.45c-.38-1.16.29-2.01.45-2.72v27.85c1.57,6.78,3.48,13.5,4.48,20.41,3.94,31.03-12.92,61.78-9.91,92.53v.02Z"/>
  <path class="cls-4" d="M248.44,161.17v1.36h.91l.77.94c-2.69,13.22-2.29,26.07,6.83,36.96l.09,1.48c-1,1.03-1.79,2.28-3.04.16,1.93,5.84,4.57,11.06,9.11,15.25l.26.89c-.71.85-3.29,3.16-2.72,4.98-.71.47-1.4.23-2.07-.7,1.79,9.05,3.56,16.98,8.09,25.18,5.08,9.05,12.51,17.79,14.34,28.04l-.91.45c-5.74-12.51-14.69-23.54-19.35-36.55-2.73-7.61-4.14-15.41-5.09-23.42-1.74-11.23-6.24-20.05-8.8-31.03-1.75-1.42-2.3,5.13-3.06,6.47-6.1,13.14-10.41,26.77-6.68,41.53-.47-.85-2.08-3.24-2.2-3.94.08-2.06,2.1-13.69-1.42-12.81-1.01-1.16,2.25-10.26,2.51-11.57,6.37-11.89,7.65-26.84,11.11-38.32-1.54.17-2.24-2.71-.19-3.51.15-1.2.65-1.81,1.5-1.82v-.02Z"/>
  <path class="cls-25" d="M194.59,310.11c.64.49,1.5.46,2.26.45.27,1.01-1.03,1.28-1.28,2.11-.64,2.15.4,5.17.38,7.39l1.36-.91c1.73,5.37.51,11.56,2.07,17.15.29,1.69,5.78,27.2,6.02,25.9-.69-3.38.99-3.31,2.77-4.56l.8,1.51c-2.37,15.79,4.95,30.74,3.73,46.48-.07.88.28,1.03-.9.9l-.45-2.71v6.34c-.85-.12-.73-.83-.91-1.36-.27-6.27-.27-6.42,0-.45l-1.36.45c-3.22-13.68-4.18-25.25-5.44-39.15-3.11-20.3-9.2-38.92-9.04-59.54h-.01Z"/>
  <path class="cls-3" d="M241.65,382.09c.28-.74-.32-1.05-.45-1.36l-.07-1.32c5.28-17.69,6.48-36.02,5.05-54.36l.9.45v-1.81c2.35,2.68,0-11.57.1-13.09-2.51-18.38-7.54-36.74-8.7-54.82l.38-.31.08-1.5c9.71,41.77,17.46,86.55,2.72,128.12h-.01Z"/>
  <path class="cls-28" d="M174.68,409.25v-2.26l-.91.45c.57-10.14,3.9-20.21,4.01-30.62l-.84.29-1.36-.45-.73-1.31c.46-3.81.44-7.65.32-11.48l.86-1.25h.91v-5.43c.84-.45,1.13-.26,1.31.61-.29,7.65.17,7.43,1.38-.64,4.67-12.43,4.7-25.51,6.8-38l1.81.22c-.12-2.86.37-5.79-.49-8.56.91-.38,1.08-1.12,1.84-1.63-1.44,17.06-2.9,34.2-8.39,50.68-2.31,16.25-1.72,33.43-6.54,49.37h.02Z"/>
  <path class="cls-3" d="M219.03,402.91c-5.58,21.02-13.09,43.19-4.64,64.6l-.33,1.94-.9-.45c.45,1.21.35,2.38.45,3.62-10.76-31.11-1.91-31.47-2.72-57.04l.9.45c.11-.93-.38-2.56.46-3.17l.62.14c1.09-3.52,2.34-6.93,3.75-10.21l1.06.12.26.44c.44.02.74-.28,1.1-.44h0Z"/>
  <path class="cls-13" d="M166.08,402.46l1.03.19c.58,1.34,5.12,14.74,4.43,13.57-.3-.51-.24-.99.42-1.08l.91,1.36c-.28,22.73,7.42,26.57-1.81,52.51.07-.66.1-1.36-.45-1.81,4.69-20.77,2.22-42.77-5.7-62.79l.27-1.04c.77.12,1.08-.12.91-.91h-.01Z"/>
  <path class="cls-7" d="M146.17,253.52c-2.23,22.98-8.91,46.06-10.43,69.42.22-1.35.83-2.46,1.83-3.32v1.36h.91l.52,1.84c-4.8,18.43.36,37.9,3.1,56.11l-.91.45c-13.71-41.55-5.45-86.28,4.53-127.66l.08,1.5.38.31h-.01Z"/>
  <path class="cls-6" d="M144.81,396.12c-.47-.26-.71-.62-.63-1.11-.32,3.74-.26,7.43.18,11.07.55-1.55,1.3-2.31,2.26-2.26v.91h.91l.4,1.38c-5.8,16.73-9.57,34.92-7.19,52.5l-1.36,1.36c-4.09-16.73.83-32.29,4.1-48.67-1.17-8.61-.16-17.35-.48-26.03,1.08,1,.12,3.14.5,4.48l1.76.5c-.07-3.16.11-6.35,0-9.51,3.06-1.71.93,12.62.53,14.92l-.99.48v-.02Z"/>
  <path class="cls-21" d="M299.58,272.99l-.68-.44-.22.44-.79-.45c-5.13-11.23-6.86-24.14-7.81-36.22h.9c-1.61-11.89-7.02-22.98-11.76-33.95-.09-1.43-2.77,1.3-3.17,1.36l-.58-1.67c1.97-11.4,1.1-23.5-3.63-34.14l.14-1.77.91-.45c7.18,12.91,3.68,27.26,9.87,41.06,12.21,20.43,9.47,43.86,16.83,66.24h0Z"/>
  <path class="cls-36" d="M271.52,159.35c-.05-.64.12-1.32-.08-1.96-.35-.13-.93-1.22-1.11-1.52,1.78-15.12-4.25-34.72-20.84-38.43-.26-.28-1.21-1.17-1.27-1.57l-1.59-.89c21.6,3.06,28.81,25.15,24.89,44.37h0Z"/>
  <path class="cls-19" d="M242.11,114.08c-1.18-.03-1.18.46-1.36,1.36l-1.05.13c-8.08-6.33-20.9-8.54-27.46-16.43l.38-.3.07-1.06c6.43,6.28,21.54,11.04,29.41,16.3h0Z"/>
  <path class="cls-34" d="M209.07,74.24c1.44-1.07,2.36.52,2.27,1.81.69-.21,1.02-1.19,1.35-1.81-1.48,6.35-1.53,12.51-1.36,19.01-1.06-.9-.03-2.15-1.65-3.17h-.62c-2-2.37-2.97-7.39-2.26-10.41.44-.29,1.36-.6,1.88-.61.92,3.29.7-2.63-.2-3.98l.58-.84h0Z"/>
  <path class="cls-3" d="M171.51,99.14c-.75,1.92-2.35,3.42-4.8,4.49-8.14,3.86-16.64,7.74-23.71,12.71-24.26,1.45-29.59,18.09-30.32,39.84l-.38.31-.08,1.5c-4.88-21.79,7.45-42.65,30.49-44.42,8.48-5.67,21.04-8.78,28.34-15.79l.07,1.06.38.3h0Z"/>
  <path class="cls-27" d="M173.77,76.51l.91.52.03,4.4c.14-.82.37-1.32,1.32-1.3v.91h.91c.65,3.35-.26,8.83-4.08,9.8-.03,1.69.27,2.73-.45,4.24.17-1.69-.47-4.24.45-5.66,0-2.73.26-8.4-.91-11.09l1.36.45c-.33-1.06.23-1.61.45-2.26h0Z"/>
  <path id="LOWER_BACK" data-name="LOWER BACK" class="cls-29" d="M191.42,257.59c5.88-.52-3.43-76.32,8.51-47.68,2.82,8.26,10.11,12.7,14.94,19.46,2.34,4.54,1.38,11.04,5.95,14.41-24.31,7.63-18.45,23.74-29.19,26.53-8.94-2.44-6.72-21.09-28.06-25.85-.4-.07-1.03.09-.67-.67,4.8-3.52,3.65-10.74,6.86-15.78,4.19-5.11,10.8-9.54,13.24-16.18.85-1.68,2.83-8.51,4.96-8.05,3.04.65,1.99,9.96,2.09,12.4.76,13.84-.58,27.68,1.37,41.42h0Z"/>
  <g id="SHOULDERS_BACK" data-name="SHOULDERS BACK">
    <path class="cls-29" d="M248.44,116.35c18.22,2.57,27.09,27.41,21.5,43.01-7.32-8.32-18.37-10.88-26.49-18.32-4.33-3.38-6.53-9.29-11.26-12.05,1.03-6.01,12.61-5.87,13.09-12.63,1.01.07,2.2-.15,3.16,0h0Z"/>
    <path class="cls-11" d="M112.68,156.19c-3.05-15.85,7.27-42.08,25.79-38.93,3.13,4.85,5.63,4.93,10.11,7.77,5.77,3.66,1.83,4.52-1.3,8.07-2.83,3.21-5.29,6.71-8.58,9.53-6.98,6.53-19.18,8.62-24.68,16.74-1.69.5-.48-2.28-1.35-3.17h.01Z"/>
  </g>
  <g id="GLUTES">
    <g id="GLUTES-2">
      <path class="cls-29" d="M149.33,326.4c-4.82-15.82-7.6-32.2-.67-48.44,4.8-11.45,26.25-32.11,34.99-13.73,8.35,14.01,11.29,39.78-5.69,48.47-9.47,5.33-24.31,1.37-28.62,13.7h-.01Z"/>
      <path class="cls-29" d="M235.32,326.4c-11.67-20.06-43.55,1.26-41.64-43.7.53-6.75,5.29-17.75,9.73-22.86,3.26-3.75,4.9-3.75,9.65-2.39,15.77,4.5,25.29,21.91,26.36,37.46.98,11.35-3.55,20.47-4.1,31.49h0Z"/>
    </g>
    <path class="cls-1" d="M238.49,255.78c4.11,24.81,10.79,49.31,10.41,74.7-8.97-26.41-3.14-66.1-37.23-75.25-1.48-.76-1.41-1.33-.52-2.6,6.59-7.63,24.65-8.77,27.35,3.15h-.01Z"/>
    <path class="cls-29" d="M146.17,253.52c-.24-3.57,7.28-6.26,10.22-6.75,5.28-.42,15.97,1.92,16.96,7.85-34.19,7.98-30.09,48.85-38.49,75.41.24-26.04,6.59-51,11.31-76.51h0Z"/>
  </g>
  <g id="TRICEPS">
    <path class="cls-1" d="M249.35,162.52c4.89-28.52,15.83,9.12,14.01,17.87-5.07,7.79-3.99,16.93-1.79,25.14-7.36-4.04-11.59-14.04-13.47-22.06-1.09-5.28.41-15.33,1.25-20.94h0Z"/>
    <path class="cls-1" d="M122.19,205.53c2.19-8.01,3.82-17.99-1.83-25.13-.11-.71.38-6.08.51-7.2,1.41-5.51,1.89-21.67,9.92-20.87,4.96,4.46,5.37,22.8,5.39,29.39-1.03,7.61-7.22,20.07-13.99,23.81Z"/>
    <g id="TRICEPS-2">
      <path class="cls-1" d="M272.88,219.11c1.04,1.46,3.39-9.14,4.07-10.41,3.88,4.69,1.31,10.87-.32,16.2-1.41,6.38-1.61,13.03-1.49,19.56-3.01-4.3-3.93-10.33-7-14.95-3.45-4.2-4.87-7.82-2.94-13.34.91-10.85-8.65-23.77-.24-33.66,6.67,4.72,7.84,17.01,7.95,24.62-.6,3.72-1.38,8.56-.02,11.98h-.01Z"/>
      <path class="cls-12" d="M108.61,244.01c.29-6.57-.16-12.69-1.49-19.11-1.71-5.53-2.92-10.19-.55-15.75,2.31,2.74,2.26,7.48,4.3,9.96,2.6-10.33-1.86-19.89,3.24-30.04,1.63-3.17,4.56-10.32,6.95-3.46,3.86,9.08-1.67,19.16-2.92,27.88-.14,3.52,2.67,7.71.65,11.49-4.93,5.16-6.58,13.14-10.16,19.03h-.02Z"/>
    </g>
    <path class="cls-1" d="M271.97,166.15c6.38,12.98,7.37,30.99,1.81,44.36.79-10.95.12-23.04-7.44-31.72-3-5.99-2.85-16.99-6.59-23.29,4.87.62,9.77,6.19,12.22,10.64h0Z"/>
    <path class="cls-1" d="M109.97,209.38c.04.42,1.3,1.33-.45,1.13-5.18-18.12-5.15-46.1,14.48-55.46-3.21,6.81-3.61,15.47-5.74,22.32-7.03,9.04-9.61,20.87-8.29,32h0Z"/>
  </g>
  <g id="BACK">
    <g id="TRAPS">
      <path class="cls-11" d="M171.51,99.14c9.99-7.09,11.86-19.32,11.53-30.79,11.23-6.71,7.11,16.56,6.99,21.93-1.29,7.86-7.02,16.23-5.75,23.93,11,25.94,4.71,56.08,5.78,83.63-7.5-15.65-16.28-30.99-23.75-47.09-4.31-10.73-7.77-27.02-19.66-30.58-14.03-7.01,20.73-14.68,24.86-21.02h0Z"/>
      <path class="cls-11" d="M212.24,99.14c8.95,7.43,19.91,8.96,28.51,16.3.35,4.68-8.92,6.71-11.99,9.96-4.23,4-8.35,18.45-10.87,24.44-7.6,16.53-16.58,31.98-24.2,47.99-.05-2.96-.14-66.51.49-66.73,1.06-10.25,7.86-14.66,4.37-26.18-3.02-5.49-12.38-43.72,2.16-36.57.06,12.02.91,22.78,11.53,30.79Z"/>
    </g>
    <g id="LATS">
      <path class="cls-29" d="M246.18,166.15c.56-.29,1.54-1.04,1.36.22-1.59,12.58-4.41,24.86-9.85,36.33-2.8,10.94-6.84,21.24-13.31,30.6l-2.86,8.91c-7.14-9.36.52-10.48-13.8-22.86-2.97-3.45-9.83-15.23-10.38-19.49,1.14-10.77,9.87-23.53,14.89-32.58,14.28,2.05,19.05,7.25,33.95-1.12h0Z"/>
      <path class="cls-30" d="M162.01,241.75c-1.07-8.93-7.69-15.54-11.09-23.54-4.43-17.19-14.06-34.48-14.26-52.51,19.37,13.36,34.32-5.01,36.56,4.39,4.71,9.34,13.56,20.66,13.01,31.39-.87,3.02-6.06,12.32-8.02,15.07-4.62,6.5-10.02,8.48-12.39,17.03-.55,2.8-.5,7.26-3.82,8.17h.01Z"/>
    </g>
    <path class="cls-29" d="M161.55,167.05c-9.43-3.82-16.86-13.5-22.13-22.03,3.1-3.78,8.29-9.23,11.48-13.3,3-3.04,4.28-.13,5.76,2.43,2.82,5.29,5.95,11.81,7.96,17.39.81,4.73-1.94,10.93-3.07,15.52h0Z"/>
    <path class="cls-20" d="M230.2,130.43c5.63,1.91,9.07,10.42,14.07,14.2-4.64,9.39-12.36,17.15-21.4,22.33-2.45-3.08-3.67-10.58-3.83-14.59,1.65-5.18,6.66-17.98,11.16-21.95h0Z"/>
    <path class="cls-17" d="M248.44,161.17c-.15,6.53-18.59,9.77-21.72,5.66,4.84-4.48,10.23-8.48,14.22-13.84.86-1.16,4.12-7.07,5-7.12,4.27,2.42,2.64,11.02,2.5,15.3h0Z"/>
    <path class="cls-29" d="M137.82,145.78c3.11,2.09,4.04,6.74,7,9.72,1.98,3.24,12.92,9.97,12.22,12.23-7.17,1.73-15.23.47-21.06-4.29-.44-5.51-2.71-13.4,1.84-17.66Z"/>
  </g>
  <g id="CALVES_BACK">
    <g id="CALVES_BACK-2" data-name="CALVES BACK">
      <path class="cls-29" d="M147.53,404.72c.59-1.33,2.08-2.84,2.3-4.5l1.26.04c9.97,14.84,3.74,34.07,4.55,50.83.36,10.03-10.08,22.48-14.9,7.51-4.95-17.63,1.34-37.1,6.79-53.87h0Z"/>
      <path class="cls-29" d="M235.77,403.82c5.62,17.68,13.24,38.23,6.56,56.59-1.52,6.16-7.63,6.66-11.02,1.52-4.49-6.72-2.9-20.46-3.23-28.46-.29-10.56-3.62-25.62,5.64-33.27.92,1.02,1.45,2.4,2.04,3.62h.01Z"/>
      <path class="cls-1" d="M219.03,402.91c.25-.11.47-.26.68-.43,7.98,15.85,12.08,57.85-4.98,68.79-9.12-23.13-4.58-45.69,4.3-68.36h0Z"/>
      <path class="cls-11" d="M165.18,403.37c8.5,21.52,13.24,46.1,3.85,67.9-14.82-9.69-11.51-38.29-9.68-53.59.08-2.1,3.11-17.87,5.84-14.31h-.01Z"/>
    </g>
    <path class="cls-30" d="M157.48,456.78c1.04,6.33,4.82,13.41,10.89,16.12-3,19.47-8.91,38.8-6.8,58.76-5.66,2.93-3.88-2.64-4.09-6.29-.6-19.64-5.28-38.98-11.78-57.48,5.59.01,9.12-4.31,10.65-9.28.34-.95-.24-2.13,1.12-1.82h.01Z"/>
    <path class="cls-29" d="M235.32,467.2c.8.24,1.51.79,2.72.45-7.24,20.7-11.17,42.14-11.82,64l-.68.68c-5.12.86-3.1-3.11-2.86-6.49,1.55-17.86-5.18-35.51-6.83-52.94,6.09-3.19,9.45-10.04,10.89-16.58,1.71,4.53,3.3,9.67,8.59,10.86v.02Z"/>
    <path class="cls-9" d="M229.44,510.66c2.19-13.59,4.83-34.74,12.9-46.18-1.54,18.35-9.54,35.79-12.9,53.87-1.36-.45.54-5.94,0-7.69h0Z"/>
    <path class="cls-12" d="M155.22,520.16c-2.07-9.62-5.3-20.07-8.47-29.78l-5.55-25.9c10.26,15.86,11.8,37.15,14.02,55.68Z"/>
  </g>
  <g id="FOREARM">
    <path class="cls-1" d="M98.65,282.94c6.53-18.16,9.76-37.44,19-54.55l9.05-8.37c-1.38,17.8-11.32,32.31-19.99,47.22-2.75,4.39-3.97,13.32-8.06,15.7Z"/>
    <path class="cls-30" d="M104.08,216.85c6.85,22.3,1.35,43.94-6.76,65l-2.3-.52c6.88-20.28.74-46.09,9.06-64.48Z"/>
    <path class="cls-1" d="M280.12,216.85c7.09,20.08,2.59,42.73,8.16,63.16.11,2.02-1.4,2.95-2.2,1.27-7.25-20.86-13.79-42.7-5.96-64.43Z"/>
    <path class="cls-12" d="M260.66,223.19c11.75,8.9,13.83,26.73,18.22,39.95,1.99,6.46,4.53,12.85,6.22,19.36-.65.13-.74-.05-1.11-.47-3.37-6.24-5.99-13.98-9.67-20.21-3.74-6.55-8.65-13.01-11.63-20.06-2.8-6.62-3.44-14.21-5.66-21.05.74-1.03,2.77,2,3.63,2.49h0Z"/>
    <path class="cls-12" d="M290.08,236.32c3.27,12.35,3.27,24.99,8.6,36.67-.05.68,1.37,3.76-.45,3.17-1.43-5.96-5.65-12.38-6.79-18.56.39,7.47,2.82,14.58,4.1,21.9-4.13,3.61-3.49-10.88-5.46-11.94l2.26,12.48c-.02,1.23-1.31,1.2-2.25,1.09-4.73-19.07-3.45-39.65-6.8-58.85,3.17,3.31,5.27,9.58,6.79,14.03h0Z"/>
    <path class="cls-29" d="M93.67,281.14c-1.02.16-1.74-.28-2.18-1.19l1.73-10.58-2.48,9.97c-.5.81-2.09.61-2.48-.27,1.79-7.35,3.73-14.79,4.05-22.37l-2.17,8.47-4.62,10.09c-1.72-3.66,3.89-13.13,4.41-18,2.56-11.96,2.62-24.75,10.53-34.96-3.75,19.48-1.84,39.56-6.79,58.85h0Z"/>
    <path class="cls-14" d="M104.53,202.36c2.56,8.85-5.09,17.74-8.99,25.64-.84,1.81-1.23,4.37-2.77,5.6.25-11.12,7.07-20.75,10.83-30.59.2-.69-.17-.76.93-.65h0Z"/>
    <path class="cls-35" d="M290.08,233.15c-2.55-10.65-13.34-19.18-10.86-30.78,4.79,7.26,12.19,22.38,10.86,30.78Z"/>
  </g>
  <path class="cls-31" d="M120.38,218.21c-.43-3.1-1.08-6.31.51-9.22.9-.77,9.32-9.37,10.34-9.34-1.95,6.64-4.47,15.24-10.86,18.56h.01Z"/>
  <path class="cls-29" d="M256.14,202.81c5.59,4.82,9.58,7.4,7.24,15.39-2.04-.52-3.2-3.23-4.76-4.52-1.88-2.01-10.87-21.18-2.48-10.88h0Z"/>
  <g id="HAMSTRINGS">
    <path class="cls-29" d="M176.94,357.19c-.25-13.23-3.69-26.06-6.33-38.92l7.81-1.93,7.12-3.52c3.39,19.7-3.34,38.38-8.14,56.59-.48-3.87.91-8.65-.46-12.22h0Z"/>
    <path class="cls-1" d="M197.31,319.16c.12-2.29.56-4.54.91-6.79,4.34,3.29,9.61,4.91,14.91,5.91-3.9,16.81-6.29,34.5-7.22,51.13-2.85-17.42-9.53-32.17-8.6-50.25Z"/>
    <path class="cls-12" d="M246.18,325.05c3.76,18.64.74,37.74-4.98,55.68-.23-15.47,1.64-29.98-2.38-45.38-3.34-8.74,1.19-18.61,2.39-27.51,3.02,4.09,3.53,12.12,4.98,17.2h0Z"/>
    <path class="cls-1" d="M138.48,320.97c1.26-3.86,1.51-10.21,4.07-13.13,2.89,11.46,5.68,23.35,1.03,34.75-2.22,12.24-1.4,25.17-.57,37.46-.41.73-.83-.9-.91-1.13-5.48-18.45-8.14-39.03-3.62-57.95h0Z"/>
    <g id="HAMSTRINGS-2">
      <path class="cls-1" d="M238.49,388.43c.12,6.23.92,12.36.9,18.56-18.19-27.47-8.05-58.88-19.46-87.82,27.12,2.77,18.42,50.5,18.55,69.26h.01Z"/>
      <path class="cls-29" d="M145.26,380.73c-2.04-16.85-5.25-59.82,18.55-61.57-10.54,29.37-2.32,60.02-19.01,88.28h-.45c-1.76-8.7,3.2-18.21.9-26.71h0Z"/>
      <path class="cls-11" d="M166.08,402.46c-10.27-23.99-9.22-51.08-2.49-76.06.81-2.77,1.68-7.83,5.21-7.69,8.54,23.65-1.36,46.82-.91,71.77.5,8.96,4.26,18.04,4.08,26.47-2.58-2.06-4.28-10.93-5.88-14.49h0Z"/>
      <path class="cls-29" d="M212.24,412.87c10.53-31.61-6.87-62.67,2.72-94.16,3.5.17,3.31,2.01,4.41,4.87,10.55,33.56,6.51,61.85-6.67,93.37l-.45-4.07h-.01Z"/>
      <path class="cls-29" d="M176.04,362.62c1.47,14.64-5.28,28.31-4.08,43.01-7-19.62.15-40.32,1.82-60.66,1.63,5.67,1.78,11.79,2.26,17.65Z"/>
      <path class="cls-29" d="M212.69,405.63l-.91-4.74c.59-8.41-2.1-16.47-3.5-24.56-1.33-10.2-.36-21.29,1.7-31.35,2.44,20.23,7.58,40.32,2.72,60.66h0Z"/>
    </g>
    <path class="cls-30" d="M157.94,407.89c-1.18-4.18-3.96-7.55-6.35-11.08l4.09-10.65,6.34,12.47c-.44.93-3.15,8.89-4.08,9.25h0Z"/>
    <path class="cls-30" d="M225.81,407.89c-.93-.32-3.67-8.38-4.09-9.26,2.43-3.97,4.19-8.84,6.8-12.46l3.61,10.65c-2.32,3.59-5.09,6.88-6.33,11.08h0Z"/>
    <path class="cls-22" d="M173.77,407.44c-.19.56-.32,1.86-.9,1.81.05-12.16.96-25.8,5.88-36.67-.68,11.61-1.33,23.72-4.98,34.86h0Z"/>
    <path class="cls-22" d="M210.43,408.8c-3.68-12.39-3.97-23.76-5.44-36.44-.11-.95.22-1.22.57-.12,3.23,11.69,6.5,24.64,4.87,36.56Z"/>
  </g>
  <path class="cls-29" d="M176.94,81.04c1.26-3.67,1.31-9.28,4.52-11.77,1.38,8.49-1.02,19.84-7.69,25.8.64-4.75,2.03-9.34,3.17-14.03Z"/>
  <path class="cls-29" d="M206.81,79.68c1.25,4.85,2.04,10.07,3.17,14.94-6.91-5.75-8.8-17.29-7.69-25.8,2.5,2.17,3.45,7.69,4.52,10.86Z"/>
  <path class="cls-8" d="M209.07,74.24c2.18,4.01.34,9.18.9,13.58-.93-4.75-3.46-12.91-4.52-17.65,1.17.9,2.88,2.82,3.62,4.07h0Z"/>
  <path class="cls-23" d="M144.81,396.12c.06,3.41-.38,6.59-.45,9.96l-.92-.28c.81-4.01-1.77-9.78,1.37-12.85.02,1.05-.02,2.12,0,3.17Z"/>
</svg>